<svg xmlns:xlink="http://www.w3.org/1999/xlink" xmlns="http://www.w3.org/2000/svg" viewBox="0 0 19.5 15.9" class="svg" width="19.5"  height="15.9" ><defs><style>.cls-444{fill:#2c406e;fill-opacity:0.7;fill-rule:evenodd;}</style></defs><g id="Layer_2" data-name="Layer 2"><g id="Layer_1-2" data-name="Layer 1"><path class="cls-444" d="M6.51,0h0c-1,0-1.76,0-2.4.05a4.52,4.52,0,0,0-1.7.42A4.41,4.41,0,0,0,.47,2.38a4.52,4.52,0,0,0-.42,1.7c0,.32,0,.67,0,1.07a.34.34,0,0,0,0,.1V9.42c0,1,0,1.76.05,2.4a4.52,4.52,0,0,0,.42,1.7,4.41,4.41,0,0,0,1.91,1.91,4.52,4.52,0,0,0,1.7.42c.64.05,1.42.05,2.4.05H13c1,0,1.76,0,2.4-.05a4.52,4.52,0,0,0,1.7-.42A4.41,4.41,0,0,0,19,13.52a4.52,4.52,0,0,0,.42-1.7c.05-.64.05-1.42.05-2.4h0V6.48h0V5.25a.34.34,0,0,0,0-.1c0-.4,0-.75,0-1.07A4.52,4.52,0,0,0,19,2.38,4.41,4.41,0,0,0,17.12.47a4.52,4.52,0,0,0-1.7-.42C14.78,0,14,0,13,0H6.51Zm-5,6.51V6H18V9.39c0,1,0,1.74-.05,2.3a3,3,0,0,1-.26,1.15,2.8,2.8,0,0,1-1.25,1.25,3,3,0,0,1-1.15.26c-.56.05-1.28.05-2.3.05H6.51c-1,0-1.74,0-2.3-.05a3,3,0,0,1-1.15-.26,2.8,2.8,0,0,1-1.25-1.25,3,3,0,0,1-.26-1.15c-.05-.56-.05-1.28-.05-2.3Zm0-2H18a2.64,2.64,0,0,0,0-.29,3,3,0,0,0-.26-1.15,2.8,2.8,0,0,0-1.25-1.25,3,3,0,0,0-1.15-.26C14.73,1.5,14,1.5,13,1.5H6.51c-1,0-1.74,0-2.3.05a3,3,0,0,0-1.15.26A2.8,2.8,0,0,0,1.81,3.06a3,3,0,0,0-.26,1.15A2.64,2.64,0,0,0,1.53,4.5ZM12.45,8.1a.75.75,0,0,0,0,1.5h2.7a.75.75,0,0,0,0-1.5Z" fill="#2C406E" fill-opacity="0.7"></path></g></g></svg>