<svg xmlns:xlink="http://www.w3.org/1999/xlink" xmlns="http://www.w3.org/2000/svg" viewBox="0 0 19.5 20.5" class="svg" width="19.5"  height="20.5" ><defs><style>.cls-333{fill:#2c406e;fill-opacity:0.7;fill-rule:evenodd;}</style></defs><g id="Layer_2" data-name="Layer 2"><g id="Layer_1-2" data-name="Layer 1"><path class="cls-333" d="M10.5.75A.75.75,0,0,0,9,.75V5H7.59A12.48,12.48,0,0,0,4,5.28,5.75,5.75,0,0,0,.28,9,12.48,12.48,0,0,0,0,12.59v.32a12.48,12.48,0,0,0,.28,3.62A5.75,5.75,0,0,0,4,20.22a12.48,12.48,0,0,0,3.62.28h4.32a12.48,12.48,0,0,0,3.62-.28,5.75,5.75,0,0,0,3.69-3.69,12.48,12.48,0,0,0,.28-3.62v-.32A12.48,12.48,0,0,0,19.22,9a5.75,5.75,0,0,0-3.69-3.69A12.48,12.48,0,0,0,11.91,5H10.5Zm-6.06,6A11.93,11.93,0,0,1,7.75,6.5h4a11.93,11.93,0,0,1,3.31.21,4.23,4.23,0,0,1,2.73,2.73A11.93,11.93,0,0,1,18,12.75a11.93,11.93,0,0,1-.21,3.31,4.23,4.23,0,0,1-2.73,2.73,11.93,11.93,0,0,1-3.31.21h-4a11.93,11.93,0,0,1-3.31-.21,4.23,4.23,0,0,1-2.73-2.73,11.93,11.93,0,0,1-.21-3.31,11.93,11.93,0,0,1,.21-3.31A4.23,4.23,0,0,1,4.44,6.71ZM6.75,10A1.75,1.75,0,1,0,8.5,11.75,1.75,1.75,0,0,0,6.75,10Zm6,0a1.75,1.75,0,1,0,1.75,1.75A1.75,1.75,0,0,0,12.75,10Z" fill="#2C406E" fill-opacity="0.7"></path></g></g></svg>