<svg xmlns:xlink="http://www.w3.org/1999/xlink" xmlns="http://www.w3.org/2000/svg" viewBox="0 0 19.5 17.25" class="svg" width="19.5"  height="17.25" ><defs><style>.cls-111{fill:none;stroke:#2c406e;strokeLinecap:round;strokeLinejoin:round;stroke-opacity:0.7;stroke-width:1.5px;}</style></defs><g id="Layer_2" data-name="Layer 2"><g id="Layer_1-2" data-name="Layer 1"><path class="cls-111" d="M1.08,9a1.15,1.15,0,0,0-.33.8v5.63A1.13,1.13,0,0,0,1.88,16.5H4.12a1.13,1.13,0,0,0,1.13-1.12V9.75A1.15,1.15,0,0,0,4.92,9a1.14,1.14,0,0,0-.8-.33H1.88A1.14,1.14,0,0,0,1.08,9Zm6.75-4.5a1.15,1.15,0,0,0-.33.8V15.38A1.13,1.13,0,0,0,8.62,16.5h2.26A1.13,1.13,0,0,0,12,15.38V5.25a1.15,1.15,0,0,0-.33-.8,1.13,1.13,0,0,0-.79-.33H8.62A1.13,1.13,0,0,0,7.83,4.45Zm6.75-3.37a1.14,1.14,0,0,0-.33.8v13.5a1.13,1.13,0,0,0,1.13,1.12h2.24a1.13,1.13,0,0,0,1.13-1.12V1.88A1.13,1.13,0,0,0,17.62.75H15.38A1.14,1.14,0,0,0,14.58,1.08Z" stroke="#2C406E" fill="none" stroke-width="1.5px" stroke-opacity="0.7"></path></g></g></svg>