<svg xmlns:xlink="http://www.w3.org/1999/xlink" width="20" height="20" viewBox="0 0 20 20" fill="none"
    xmlns="http://www.w3.org/2000/svg" class="svg">
    <path d="M5.9799 5.9799H5.98986M1.1172 5.64003L1.07417 6.45765C0.991758 8.02348 0.950552 8.80639 1.09969 9.54665C1.23187 10.2027 1.47333 10.8319 1.81397 11.408C2.19832 12.058 2.75269 12.6124 3.86142 13.7211L6.27319 16.1329C7.58403 17.4437 8.23944 18.0991 8.94222 18.4572C10.3626 19.1809 12.0435 19.1809 13.4639 18.4572C14.1666 18.0991 14.8221 17.4437 16.1329 16.1329C17.4437 14.8221 18.0991 14.1666 18.4572 13.4639C19.1809 12.0435 19.1809 10.3626 18.4572 8.94222C18.0991 8.23944 17.4437 7.58403 16.1329 6.2732L13.7211 3.86143C12.6124 2.75269 12.058 2.19832 11.408 1.81397C10.8319 1.47333 10.2027 1.23187 9.54665 1.09969C8.80639 0.950552 8.02348 0.991758 6.45765 1.07417L5.64003 1.1172C4.12136 1.19713 3.36202 1.2371 2.77363 1.55266C2.25535 1.83062 1.83062 2.25535 1.55266 2.77363C1.2371 3.36202 1.19713 4.12136 1.1172 5.64003ZM6.46743 5.96762C6.46743 6.24265 6.24448 6.46561 5.96944 6.46561C5.69441 6.46561 5.47145 6.24265 5.47145 5.96762C5.47145 5.69259 5.69441 5.46963 5.96944 5.46963C6.24448 5.46963 6.46743 5.69259 6.46743 5.96762Z" stroke="#2C406E" stroke-opacity="0.7" stroke-width="1.5px" stroke-linecap="round" stroke-linejoin="round" fill="none"></path>
</svg>