<svg xmlns="http://www.w3.org/2000/svg" width="31" height="18" viewBox="0 0 31 18"><defs><mask id="ad1vb" width="2" height="2" x="-1" y="-1"><path fill="#fff" d="M1.82 2.26h13.09v13.09H1.82z"/><path d="M1.824 8.805a6.545 6.545 0 1 1 13.09 0 6.545 6.545 0 0 1-13.09 0z"/></mask><filter id="ad1va" width="36.09" height="36.09" x="-9.18" y="-8.74" filterUnits="userSpaceOnUse"><feOffset dx="1" dy="1" in="SourceGraphic" result="FeOffset1457Out"/><feGaussianBlur in="FeOffset1457Out" result="FeGaussianBlur1458Out" stdDeviation="0.4 0.4"/></filter><linearGradient id="ad1vc" x1="11.54" x2="5.19" y1="14.3" y2="3.31" gradientUnits="userSpaceOnUse"><stop offset="0" stop-color="#fff"/><stop offset="1" stop-color="#e6e6e6"/></linearGradient></defs><g><g><g><path fill="#b9bec6" d="M8.064 16.976a8 8 0 0 1-8-8v-.343a8 8 0 0 1 8-8h14.938a8 8 0 0 1 8 8v.343a8 8 0 0 1-8 8z"/></g><g><g filter="url(#ad1va)"><path fill="none" d="M1.824 8.805a6.545 6.545 0 1 1 13.09 0 6.545 6.545 0 0 1-13.09 0z" mask="url(&quot;#ad1vb&quot;)"/><path fill-opacity=".2" d="M1.824 8.805a6.545 6.545 0 1 1 13.09 0 6.545 6.545 0 0 1-13.09 0z"/></g><path fill="#fff" d="M1.824 8.805a6.545 6.545 0 1 1 13.09 0 6.545 6.545 0 0 1-13.09 0z"/></g><g><path fill="url(#ad1vc)" d="M2.024 8.805a6.346 6.346 0 1 1 12.69 0 6.346 6.346 0 0 1-12.69 0z"/></g></g></g></svg>