<svg xmlns="http://www.w3.org/2000/svg" xmlns:xlink="http://www.w3.org/1999/xlink" width="230.351" height="44" viewBox="0 0 230.351 44">
  <defs>
    <linearGradient id="linear-gradient" x1="-2.13" y1="-0.126" x2="2.318" y2="0.928" gradientUnits="objectBoundingBox">
      <stop offset="0" stop-color="#004225"/>
      <stop offset="1" stop-color="#00aa5d"/>
    </linearGradient>
    <linearGradient id="linear-gradient-2" x1="0.09" y1="0.258" x2="0.719" y2="0.665" gradientUnits="objectBoundingBox">
      <stop offset="0" stop-color="#003816"/>
      <stop offset="0.094" stop-color="#004e24"/>
      <stop offset="0.257" stop-color="#006f38"/>
      <stop offset="0.425" stop-color="#008948"/>
      <stop offset="0.597" stop-color="#009b53"/>
      <stop offset="0.778" stop-color="#00a65a"/>
      <stop offset="0.98" stop-color="#00aa5d"/>
    </linearGradient>
    <linearGradient id="linear-gradient-3" x1="-22.485" y1="-0.604" x2="-17.097" y2="1.171" xlink:href="#linear-gradient"/>
    <radialGradient id="radial-gradient" cx="0.5" cy="0.5" fx="0.9047990441322327" fy="1.2287698984146118" r="1.214" gradientTransform="translate(0.292 0.068) scale(0.417 0.864)" gradientUnits="objectBoundingBox">
      <stop offset="0.341" stop-color="#003e22"/>
      <stop offset="0.423" stop-color="#004324"/>
      <stop offset="0.523" stop-color="#00522d"/>
      <stop offset="0.633" stop-color="#006a3a"/>
      <stop offset="0.749" stop-color="#008d4e"/>
      <stop offset="0.87" stop-color="#00b966"/>
      <stop offset="0.994" stop-color="#00ef84"/>
      <stop offset="1" stop-color="#00f286"/>
    </radialGradient>
    <linearGradient id="linear-gradient-4" y1="0.5" x2="1" y2="0.5" gradientUnits="objectBoundingBox">
      <stop offset="0" stop-color="#004225"/>
      <stop offset="0.175" stop-color="#006035"/>
      <stop offset="0.4" stop-color="#008046"/>
      <stop offset="0.618" stop-color="#009752"/>
      <stop offset="0.822" stop-color="#00a55a"/>
      <stop offset="1" stop-color="#00aa5d"/>
    </linearGradient>
    <radialGradient id="radial-gradient-2" cx="0.373" cy="0.318" fx="-0.1720234751701355" fy="0.9041144847869873" r="1.177" gradientTransform="translate(0.233) scale(0.534 1)" gradientUnits="objectBoundingBox">
      <stop offset="0.001" stop-color="#003e22"/>
      <stop offset="0.133" stop-color="#004324"/>
      <stop offset="0.297" stop-color="#00522d"/>
      <stop offset="0.477" stop-color="#006b3b"/>
      <stop offset="0.67" stop-color="#008f4e"/>
      <stop offset="0.87" stop-color="#0b6"/>
      <stop offset="0.992" stop-color="#00db78"/>
    </radialGradient>
    <linearGradient id="linear-gradient-5" x1="1.206" y1="0.572" x2="0.22" y2="0.485" gradientUnits="objectBoundingBox">
      <stop offset="0" stop-color="#003636"/>
      <stop offset="0.144" stop-color="#003f39"/>
      <stop offset="0.389" stop-color="#005a42"/>
      <stop offset="0.701" stop-color="#008550"/>
      <stop offset="0.936" stop-color="#00aa5d"/>
    </linearGradient>
    <linearGradient id="linear-gradient-6" x1="0.363" y1="0.426" x2="0.545" y2="0.518" gradientUnits="objectBoundingBox">
      <stop offset="0" stop-color="#fff"/>
      <stop offset="1" stop-color="#ababab"/>
    </linearGradient>
    <linearGradient id="linear-gradient-7" x1="-3.248" y1="-0.699" x2="3.048" y2="1.216" xlink:href="#linear-gradient-6"/>
    <linearGradient id="linear-gradient-8" x1="0.701" y1="0.033" x2="0.341" y2="0.87" gradientUnits="objectBoundingBox">
      <stop offset="0" stop-color="#004336"/>
      <stop offset="0.179" stop-color="#005c3f"/>
      <stop offset="0.515" stop-color="#00864f"/>
      <stop offset="0.778" stop-color="#00a059"/>
      <stop offset="0.935" stop-color="#00aa5d"/>
    </linearGradient>
    <linearGradient id="linear-gradient-10" x1="12.512" y1="-0.604" x2="17.9" y2="1.171" xlink:href="#linear-gradient"/>
    <linearGradient id="linear-gradient-11" x1="-0.102" y1="1.327" x2="1.065" y2="-0.094" gradientUnits="objectBoundingBox">
      <stop offset="0.065" stop-color="#00aa5d"/>
      <stop offset="0.222" stop-color="#00a059"/>
      <stop offset="0.485" stop-color="#00864f"/>
      <stop offset="0.821" stop-color="#005c3f"/>
      <stop offset="1" stop-color="#004336"/>
    </linearGradient>
    <linearGradient id="linear-gradient-12" x1="-0.164" y1="0.477" x2="0.904" y2="0.515" xlink:href="#linear-gradient-2"/>
    <linearGradient id="linear-gradient-14" x1="-3.248" y1="-0.699" x2="3.048" y2="1.216" xlink:href="#linear-gradient-6"/>
  </defs>
  <g id="Logo" transform="translate(-30 -14.652)">
    <g id="Logo-2" data-name="Logo" transform="translate(-47.157 -306.412)">
      <g id="Group_76553" data-name="Group 76553" transform="translate(77.157 321.064)">
        <g id="Group_76549" data-name="Group 76549" transform="translate(9.059 13.91)">
          <g id="Group_76548" data-name="Group 76548">
            <g id="Group_76547" data-name="Group 76547">
              <path id="Path_33825" data-name="Path 33825" d="M163.156,370.971h6.736a7.649,7.649,0,0,0-5.554,3.9l-3.452,6.573q-1.8,3.528-3.234,6.1a1.78,1.78,0,0,1-1.141.235h-2.869q-.835,0-.835-.235v-.176q.353-.964,3.234-6.35,4.515-8.772,4.845-9.09A2.825,2.825,0,0,1,163.156,370.971Z" transform="translate(-143.57 -370.971)" fill="url(#linear-gradient)"/>
              <path id="Path_33826" data-name="Path 33826" d="M194.18,374.875l12.964-.007a18.162,18.162,0,0,0-.925-3.9h-6.485A7.649,7.649,0,0,0,194.18,374.875Z" transform="translate(-173.411 -370.971)" fill="url(#linear-gradient-2)"/>
              <path id="Path_33827" data-name="Path 33827" d="M129.5,397.511a.352.352,0,0,0,0-.323,10.426,10.426,0,0,0-.835-1.455,2.825,2.825,0,0,0-2.269-.964h-6.736a7.65,7.65,0,0,1,5.554,3.9l1.526,2.9a.353.353,0,0,0,.624,0Z" transform="translate(-119.662 -388.136)" fill="url(#linear-gradient-3)"/>
            </g>
          </g>
        </g>
        <g id="Group_76550" data-name="Group 76550" transform="translate(0.875 0.014)">
          <path id="Path_33828" data-name="Path 33828" d="M113.669,325.086c8.492.684,14.19,5.873,16.086,13.82h3.235a21.987,21.987,0,0,0-42.695-1.95h0C92.722,330.792,102.907,324.219,113.669,325.086Z" transform="translate(-90.295 -321.113)" fill="url(#radial-gradient)"/>
        </g>
        <g id="Group_76551" data-name="Group 76551" transform="translate(0.875)">
          <path id="Path_33829" data-name="Path 33829" d="M90.295,336.92c1.923-7.155,10.359-14.85,19.641-14.814,17.9.069,19.327,16.764,19.327,16.764h3.726s-2.016-16.563-20.807-17.767c-10.031-.643-19.223,6.674-21.888,15.817Z" transform="translate(-90.295 -321.064)" fill="url(#linear-gradient-4)"/>
        </g>
        <g id="Group_76552" data-name="Group 76552" transform="translate(0 20.542)">
          <path id="Path_33830" data-name="Path 33830" d="M131.123,396.719c-.254,9.742-9.274,18-19.077,18-9.962,0-21.743-8.515-21.743-18.477q0-.743.06-1.472H88.63a1.473,1.473,0,0,0-1.473,1.472h0a21.986,21.986,0,0,0,43.966.478Z" transform="translate(-87.157 -394.769)" fill="url(#radial-gradient-2)"/>
          <path id="Path_33831" data-name="Path 33831" d="M110.87,417.108a20.781,20.781,0,0,1-20.415-18.435H101.77a7.65,7.65,0,0,0-5.554-3.9H88.423v.016a1.471,1.471,0,0,0-1.266,1.456,21.977,21.977,0,0,0,38.567,14.422A20.991,20.991,0,0,1,110.87,417.108Z" transform="translate(-87.157 -394.768)" fill="url(#linear-gradient-5)"/>
        </g>
        <path id="Path_33832" data-name="Path 33832" d="M155.44,387.551v-.176q.353-.964,3.234-6.35,4.515-8.772,4.845-9.09a2.825,2.825,0,0,1,2.269-.964h-2.632a2.825,2.825,0,0,0-2.269.964q-.329.317-4.845,9.09-2.881,5.386-3.234,6.35v.176q0,.235.835.235h2.632Q155.44,387.787,155.44,387.551Z" transform="translate(-134.511 -357.061)" fill="url(#linear-gradient-6)" style="mix-blend-mode: overlay;isolation: isolate"/>
        <path id="Path_33833" data-name="Path 33833" d="M137.985,399.515l1.056-2a.352.352,0,0,0,0-.323,10.426,10.426,0,0,0-.835-1.455,2.825,2.825,0,0,0-2.269-.964h-3.05C134.967,394.971,136.143,395.2,137.985,399.515Z" transform="translate(-120.144 -374.226)" fill="url(#linear-gradient-7)" style="mix-blend-mode: overlay;isolation: isolate"/>
        <path id="Path_33834" data-name="Path 33834" d="M93.059,394.784c0-.006-1.36-.011-1.36-.016h7.793a7.65,7.65,0,0,1,5.554,3.9H95.091Z" transform="translate(-90.433 -374.226)" fill="url(#linear-gradient-8)"/>
      </g>
      <g id="Group_76581" data-name="Group 76581" transform="translate(32.88 -1179.144)">
        <g id="Group_76577" data-name="Group 76577" transform="translate(102.724 1512.207)">
          <path id="Path_34601" data-name="Path 34601" d="M103.366,1512.359h1.075q3.949,0,3.95,3.88v10.551q0,1.075,1.438,1.075h12.854q1.87,0,2.736,2.512a3.675,3.675,0,0,1,.14,1.145q-.042.8-.642.8H105.878a2.973,2.973,0,0,1-3.085-1.87l-.07-.851V1513.14Q102.724,1512.359,103.366,1512.359Z" transform="translate(-102.724 -1512.317)" fill="#fff"/>
          <path id="Path_34602" data-name="Path 34602" d="M206.745,1512.359h4.848q.782,0,.782.851a3.545,3.545,0,0,1-2.708,3.782H196.514q-.642,0-.642-.782v-.14a3.54,3.54,0,0,1,2.2-3.573C198.263,1512.406,206.4,1512.359,206.745,1512.359Zm-6.811,7.844h1.713c0,.845,0,4.252,0,4.913v1.423q0,.935.782.935h12.826q3.406,0,4.131,2.847,0,.168.07,1.075,0,.921-1.061.921H200.436q-2.694,0-3.28-.782a3.623,3.623,0,0,1-1.284-3v-4.773a3.473,3.473,0,0,1,2.359-3.419A11.235,11.235,0,0,1,199.933,1520.2Z" transform="translate(-170.234 -1512.317)" fill="#fff"/>
          <path id="Path_34603" data-name="Path 34603" d="M482.452,1512.207H499.94a3.232,3.232,0,0,1,3.378,2.233v3.6q0,4.326-.642,4.885-.573,1.159-2.736,1.158-.586.223-.586.642,2.289,4.662,3.531,6.755l.07.363c-.093.223-.186.345-.279.363h-4.969q-.74,0-2.094-2.875a48.334,48.334,0,0,0-2.875-5.038,1.416,1.416,0,0,0-.712-.209H485.76q-.865,0-.865,1.647v5.9a.506.506,0,0,1-.572.572h-4.968q-.642,0-.642-.8v-7.844a3.114,3.114,0,0,1,1.87-3.084,3.709,3.709,0,0,1,1.8-.433h2.512q4.145,0,11.807-.07.545,0,.642-.865v-1.3q0-.935-1.228-.935H479.507q-.8,0-.8-.642v-.223a3.582,3.582,0,0,1,1.661-3.308A5.786,5.786,0,0,1,482.452,1512.207Z" transform="translate(-375.224 -1512.207)" fill="#fff"/>
          <path id="Path_34604" data-name="Path 34604" d="M588.628,1512.207h4.146q.781,0,.781.572v18.786q0,.642-1.075.642h-3.5q-1.145,0-1.144-.712v-18.646Q587.833,1512.207,588.628,1512.207Z" transform="translate(-454.31 -1512.207)" fill="#fff"/>
          <path id="Path_34605" data-name="Path 34605" d="M649.835,1512.359h5.541q.642,0,.642.349,0,.125-9.016,9.169l-.07.349v.224q0,.4,2.052,2.261,7.034,7.062,7.034,7.174v.154q0,.279-.991.279H650.2a4.394,4.394,0,0,1-3.629-1.912q-3.726-3.769-4.047-3.768h-.07q-.405,0-4.968,4.759a4.259,4.259,0,0,1-2.708.921h-4.829q-.991,0-.991-.279v-.154q.055-.251,18.758-18.814A3.612,3.612,0,0,1,649.835,1512.359Zm-20.307,0H635a4.84,4.84,0,0,1,3.754,2.205q.921.74.921,1.13,0,.475-3.615,3.768h-.14q-.5,0-2.484-2.2-4.48-4.312-4.48-4.62v-.07Q629,1512.359,629.528,1512.359Z" transform="translate(-484.114 -1512.317)" fill="#fff"/>
          <path id="Path_34606" data-name="Path 34606" d="M376.7,1540.856h14.334q.782,0,.781.642v.279q0,1.94-2.289,2.931a2.176,2.176,0,0,1-.558.07H379.4a.876.876,0,0,0-.991.991v1.424q0,.935.782.935H392.02q3.406,0,4.131,2.847,0,.168.07,1.075,0,.921-1.061.921H377.2q-2.694,0-3.28-.782a3.624,3.624,0,0,1-1.284-3v-4.773a3.472,3.472,0,0,1,2.359-3.419A11.237,11.237,0,0,1,376.7,1540.856Z" transform="translate(-298.343 -1532.971)" fill="#fff"/>
        </g>
        <g id="Group_76580" data-name="Group 76580" transform="translate(149.145 1512.249)">
          <g id="Group_76579" data-name="Group 76579" transform="translate(10.964 0)">
            <path id="Path_34612" data-name="Path 34612" d="M323.5,1512.359h8a9.078,9.078,0,0,0-6.591,4.634l-4.1,7.8q-2.136,4.187-3.838,7.244a2.114,2.114,0,0,1-1.354.279H312.2q-.991,0-.991-.279v-.209q.419-1.144,3.838-7.537,5.359-10.412,5.75-10.788A3.353,3.353,0,0,1,323.5,1512.359Z" transform="translate(-311.214 -1512.359)" fill="url(#linear-gradient)"/>
          </g>
          <path id="Path_34613" data-name="Path 34613" d="M283.055,1544.214a.417.417,0,0,0,0-.383,12.377,12.377,0,0,0-.991-1.727,3.352,3.352,0,0,0-2.693-1.145h-8a9.079,9.079,0,0,1,6.591,4.634l1.811,3.44a.419.419,0,0,0,.741,0Z" transform="translate(-271.379 -1533.087)" fill="url(#linear-gradient-10)"/>
        </g>
        <path id="Path_34614" data-name="Path 34614" d="M244.416,1540.959h-7.239a1.82,1.82,0,0,0-.8.14,3.54,3.54,0,0,0-2.205,3.573v.14q0,.782.642.782h16.189A9.079,9.079,0,0,0,244.416,1540.959Z" transform="translate(-95.271 -20.838)" fill="url(#linear-gradient-11)"/>
        <path id="Path_34615" data-name="Path 34615" d="M386.937,1512.359h-19.41a9.077,9.077,0,0,0-6.591,4.634h24.209c1.805-.53,2.574-1.791,2.574-3.782Q387.719,1512.359,386.937,1512.359Z" transform="translate(-187.141 -0.11)" fill="url(#linear-gradient-12)"/>
        <path id="Path_34616" data-name="Path 34616" d="M314.288,1532.005v-.209q.418-1.142,3.831-7.522,5.349-10.391,5.739-10.767a3.346,3.346,0,0,1,2.688-1.143h-3.118a3.346,3.346,0,0,0-2.688,1.143q-.39.376-5.739,10.767-3.413,6.38-3.831,7.522v.209q0,.279.989.279h3.118Q314.288,1532.284,314.288,1532.005Z" transform="translate(-151.073 -0.114)" fill="url(#linear-gradient-6)" style="mix-blend-mode: overlay;isolation: isolate"/>
        <path id="Path_34617" data-name="Path 34617" d="M293.023,1546.623l1.273-2.416a.425.425,0,0,0,0-.389,12.594,12.594,0,0,0-1.006-1.755,3.406,3.406,0,0,0-2.735-1.162h-3.676C289.385,1541.145,290.8,1541.426,293.023,1546.623Z" transform="translate(-133.469 -20.796)" fill="url(#linear-gradient-14)" style="mix-blend-mode: overlay;isolation: isolate"/>
      </g>
    </g>
  </g>
</svg>
