<svg xmlns:xlink="http://www.w3.org/1999/xlink" xmlns="http://www.w3.org/2000/svg" width="12" height="16" viewBox="0 0 12 16" fill="none">
<path fill-rule="evenodd" clip-rule="evenodd" d="M6.79196 0.791224C6.79196 0.354243 6.43772 0 6.00074 0C5.56376 0 5.20951 0.354243 5.20951 0.791224V1.38464H4.76847C3.00794 1.38464 1.55082 2.75347 1.44092 4.51057L1.26606 7.30632C1.19939 8.37226 0.841531 9.39947 0.231449 10.2761C-0.319782 11.0681 0.170951 12.1621 1.12907 12.2771L3.82487 12.6005V13.4508C3.82487 14.6525 4.79904 15.6267 6.00074 15.6267C7.20243 15.6267 8.1766 14.6525 8.1766 13.4508V12.6005L10.8724 12.2771C11.8305 12.1621 12.3212 11.0681 11.77 10.2761C11.1599 9.39947 10.8021 8.37226 10.7354 7.30632L10.5605 4.51057C10.4506 2.75347 8.99352 1.38464 7.23299 1.38464H6.79196V0.791224ZM4.76847 2.57148C3.63464 2.57148 2.69622 3.45304 2.62545 4.58465L2.45058 7.38041C2.37036 8.66309 1.93973 9.89917 1.20559 10.954C1.16575 11.0113 1.20122 11.0904 1.27047 11.0987L4.2278 11.4535C5.40553 11.5949 6.59594 11.5949 7.77366 11.4535L10.731 11.0987C10.8002 11.0904 10.8357 11.0113 10.7959 10.954C10.0617 9.89917 9.63111 8.66309 9.55088 7.38041L9.37602 4.58465C9.30524 3.45304 8.36682 2.57148 7.23299 2.57148H4.76847ZM6.00074 14.4398C5.45451 14.4398 5.01171 13.997 5.01171 13.4508V12.8574H6.98977V13.4508C6.98977 13.997 6.54696 14.4398 6.00074 14.4398Z" fill="#2C406E"/>
</svg>