<svg xmlns:xlink="http://www.w3.org/1999/xlink" xmlns="http://www.w3.org/2000/svg" width="16" height="16" viewBox="0 0 16 16" fill="none">
<path d="M10.8369 10.8263C12.2318 11.1113 13.6798 10.9801 15.0007 10.4489C14.46 11.7945 13.529 12.9475 12.3274 13.7595C11.1259 14.5716 9.70889 15.0055 8.2587 15.0054C6.57228 15.0036 4.93902 14.4152 3.6389 13.3411C2.33878 12.267 1.45277 10.7741 1.13276 9.11837C0.812748 7.46259 1.07867 5.74707 1.88493 4.26588C2.6912 2.78469 3.98759 1.63008 5.55187 1C5.02068 2.32095 4.88941 3.76888 5.1744 5.16382C5.45939 6.55876 6.14805 7.83919 7.1548 8.84593C8.16155 9.85268 9.44197 10.5413 10.8369 10.8263Z" stroke="#2C406E" stroke-width="1.2" strokeLinecap="round" strokeLinejoin="round"/>
</svg>