<svg width="14" height="14" viewBox="0 0 14 14" fill="none" xmlns="http://www.w3.org/2000/svg">
<path d="M4.98356 7L6.32785 8.3443L9.01644 5.6557M4.2005 2.09131C4.68264 2.05282 5.14036 1.86325 5.5085 1.54955C5.9245 1.19484 6.4533 1 7 1C7.5467 1 8.0755 1.19484 8.4915 1.54955C8.85964 1.86325 9.31736 2.05282 9.7995 2.09131C10.3444 2.13466 10.8561 2.3708 11.2426 2.75735C11.6292 3.1439 11.8653 3.65556 11.9087 4.2005C11.9472 4.68264 12.1368 5.14036 12.4504 5.5085C12.8052 5.9245 13 6.4533 13 7C13 7.5467 12.8052 8.0755 12.4504 8.4915C12.1368 8.85964 11.9472 9.31736 11.9087 9.7995C11.8653 10.3444 11.6292 10.8561 11.2426 11.2426C10.8561 11.6292 10.3444 11.8653 9.7995 11.9087C9.31736 11.9472 8.85964 12.1368 8.4915 12.4504C8.0755 12.8052 7.5467 13 7 13C6.4533 13 5.9245 12.8052 5.5085 12.4504C5.14036 12.1368 4.68264 11.9472 4.2005 11.9087C3.65556 11.8653 3.1439 11.6292 2.75735 11.2426C2.3708 10.8561 2.13466 10.3444 2.09131 9.7995C2.05282 9.31736 1.86325 8.85964 1.54955 8.4915C1.19484 8.0755 1 7.5467 1 7C1 6.4533 1.19484 5.9245 1.54955 5.5085C1.86325 5.14036 2.05282 4.68264 2.09131 4.2005C2.13466 3.65556 2.3708 3.1439 2.75735 2.75735C3.1439 2.3708 3.65556 2.13466 4.2005 2.09131Z" stroke="#03A66D" stroke-width="1.2" strokeLinecap="round" strokeLinejoin="round"/>
</svg>
