<svg id="Layer_1"
    xmlns="http://www.w3.org/2000/svg"
    xmlns:xlink="http://www.w3.org/1999/xlink" x="0px" y="0px" viewBox="0 0 19.5 19.5" xml:space="preserve" class="svg svg-active">
    <style type="text/css">
	.21a5{fill:none;stroke:#FFFFFF;stroke-width:1.5;stroke-linecap:round;stroke-linejoin:round;stroke-opacity:0.7;}
    </style>
    <g id="Layer_2_00000042718493350023435890000013032692755573459336_">
        <g id="Layer_1-2">
            <path class="21a5" d="M5.7,5.7L5.7,5.7 M0.9,5.4L0.8,6.2c-0.1,1-0.1,2.1,0,3.1C1,10,1.2,10.6,1.5,11.2c0.6,0.8,1.3,1.6,2,2.3 L6,15.9c0.8,0.9,1.7,1.7,2.7,2.3c1.4,0.7,3.1,0.7,4.5,0c1-0.6,1.9-1.4,2.7-2.3c0.9-0.8,1.7-1.7,2.3-2.7c0.7-1.4,0.7-3.1,0-4.5 c-0.6-1-1.4-1.9-2.3-2.7l-2.4-2.4c-0.7-0.8-1.5-1.4-2.3-2C10.6,1.3,10,1,9.3,0.8c-1-0.1-2.1-0.1-3.1,0l-0.8,0c-1,0-2,0.1-2.9,0.4 C2,1.6,1.6,2,1.3,2.5C1,3.4,0.8,4.4,0.9,5.4z M6.2,5.7C6.2,6,6,6.2,5.7,6.2C5.4,6.2,5.2,6,5.2,5.7s0.2-0.5,0.5-0.5 S6.2,5.4,6.2,5.7z"></path>
        </g>
    </g>
</svg>