<svg id="Layer_1"
    xmlns="http://www.w3.org/2000/svg"
    xmlns:xlink="http://www.w3.org/1999/xlink" x="0px" y="0px" viewBox="0 0 19.5 17.2" xml:space="preserve" class="svg svg-active">
    <style type="text/css">
	.21a1{fill:none;stroke:#FFFFFF;stroke-width:1.5;stroke-linecap:round;stroke-linejoin:round;stroke-opacity:0.7;}
    </style>
    <g id="Layer_2_00000014626215199982498720000002997117355810440855_">
        <g id="Layer_1-2">
            <path class="21a1" d="M1.1,9C0.9,9.2,0.8,9.5,0.8,9.8v5.6c0,0.6,0.5,1.1,1.1,1.1h2.2c0.6,0,1.1-0.5,1.1-1.1V9.7 c0-0.3-0.1-0.5-0.3-0.8C4.7,8.8,4.4,8.7,4.1,8.7H1.9C1.6,8.7,1.3,8.8,1.1,9z M7.8,4.5C7.6,4.7,7.5,5,7.5,5.3v10.1 c0,0.6,0.5,1.1,1.1,1.1h2.3c0.6,0,1.1-0.5,1.1-1.1V5.2c0-0.3-0.1-0.6-0.3-0.8c-0.2-0.2-0.5-0.3-0.8-0.3H8.6C8.3,4.1,8,4.2,7.8,4.5 L7.8,4.5z M14.6,1.1c-0.2,0.2-0.3,0.5-0.3,0.8v13.5c0,0.6,0.5,1.1,1.1,1.1h2.2c0.6,0,1.1-0.5,1.1-1.1V1.9c0-0.6-0.5-1.1-1.1-1.1 h-2.2C15.1,0.8,14.8,0.9,14.6,1.1L14.6,1.1z"></path>
        </g>
    </g>
</svg>