<svg id="Layer_1" xmlns="http://www.w3.org/2000/svg" xmlns:xlink="http://www.w3.org/1999/xlink" x="0px" y="0px" viewBox="0 0 19.5 15.9" xml:space="preserve" class="svg svg-active"><style type="text/css">
	.21a4{fill-rule:evenodd;clip-rule:evenodd;fill:#FFFFFF;fill-opacity:0.7;}
</style><g id="Layer_2_00000078727730012246635700000017869361052362036374_"><g id="Layer_1-2"><path class="21a4" d="M6.5,0L6.5,0C5.5,0,4.8,0,4.1,0c-0.6,0-1.2,0.2-1.7,0.4C1.6,0.9,0.9,1.6,0.5,2.4C0.2,2.9,0.1,3.5,0.1,4.1 c0,0.3,0,0.7,0,1.1c0,0,0,0.1,0,0.1v4.2c0,1,0,1.8,0,2.4c0,0.6,0.2,1.2,0.4,1.7c0.4,0.8,1.1,1.5,1.9,1.9c0.5,0.2,1.1,0.4,1.7,0.4 c0.6,0.1,1.4,0.1,2.4,0.1H13c1,0,1.8,0,2.4-0.1c0.6,0,1.2-0.2,1.7-0.4c0.8-0.4,1.5-1.1,1.9-1.9c0.2-0.5,0.4-1.1,0.4-1.7 c0-0.6,0-1.4,0-2.4l0,0V6.5l0,0V5.2c0,0,0-0.1,0-0.1c0-0.4,0-0.8,0-1.1c0-0.6-0.2-1.2-0.5-1.7c-0.4-0.8-1.1-1.5-1.9-1.9 C16.6,0.2,16,0.1,15.4,0C14.8,0,14,0,13,0H6.5z M1.5,6.5V6H18v3.4c0,1,0,1.7,0,2.3c0,0.4-0.1,0.8-0.3,1.1c-0.3,0.5-0.7,1-1.2,1.2 c-0.4,0.2-0.8,0.3-1.1,0.3c-0.6,0.1-1.3,0.1-2.3,0.1H6.5c-1,0-1.7,0-2.3-0.1c-0.4,0-0.8-0.1-1.2-0.3c-0.5-0.3-1-0.7-1.2-1.2 c-0.2-0.4-0.3-0.8-0.3-1.1c0-0.6,0-1.3,0-2.3L1.5,6.5z M1.5,4.5H18c0-0.1,0-0.2,0-0.3c0-0.4-0.1-0.8-0.3-1.1 c-0.3-0.5-0.7-1-1.2-1.3c-0.4-0.2-0.8-0.3-1.1-0.3C14.7,1.5,14,1.5,13,1.5H6.5c-1,0-1.7,0-2.3,0c-0.4,0-0.8,0.1-1.2,0.3 c-0.5,0.3-1,0.7-1.2,1.3C1.6,3.4,1.6,3.8,1.5,4.2C1.5,4.3,1.5,4.4,1.5,4.5L1.5,4.5z M12.4,8.1c-0.4,0-0.8,0.3-0.8,0.8 s0.3,0.8,0.8,0.8h2.7c0.4,0,0.8-0.3,0.8-0.8s-0.3-0.8-0.8-0.8H12.4z"></path></g></g></svg>