<svg id="Layer_1"
    xmlns="http://www.w3.org/2000/svg"
    xmlns:xlink="http://www.w3.org/1999/xlink" x="0px" y="0px" viewBox="0 0 19.5 20.5" xml:space="preserve" class="svg svg-active">
    <style type="text/css">
	.21a3{fill-rule:evenodd;clip-rule:evenodd;fill:#FFFFFF;fill-opacity:0.7;}
    </style>
    <g id="Layer_2_00000030481230201101994560000010760324261742586256_">
        <g id="Layer_1-2">
            <path class="21a3" d="M10.5,0.7c0-0.4-0.3-0.8-0.8-0.8S9,0.3,9,0.7V5H7.6C6.4,4.9,5.2,5,4,5.3C2.2,5.8,0.8,7.2,0.3,9 C0,10.2-0.1,11.4,0,12.6v0.3c-0.1,1.2,0,2.4,0.3,3.6c0.6,1.8,2,3.1,3.7,3.7c1.2,0.3,2.4,0.4,3.6,0.3h4.3c1.2,0.1,2.4,0,3.6-0.3 c1.7-0.6,3.1-1.9,3.7-3.7c0.3-1.2,0.4-2.4,0.3-3.6v-0.3c0.1-1.2,0-2.4-0.3-3.6c-0.6-1.7-1.9-3.1-3.7-3.7C14.3,5,13.1,4.9,11.9,5 h-1.4V0.7z M4.4,6.7c1.1-0.2,2.2-0.3,3.3-0.2h4c1.1-0.1,2.2,0,3.3,0.2c1.3,0.4,2.3,1.4,2.7,2.7c0.2,1.1,0.3,2.2,0.2,3.3 c0.1,1.1,0,2.2-0.2,3.3c-0.4,1.3-1.4,2.3-2.7,2.7C14,19,12.9,19.1,11.8,19h-4c-1.1,0.1-2.2,0-3.3-0.2c-1.3-0.4-2.3-1.4-2.7-2.7 c-0.2-1.1-0.3-2.2-0.2-3.3c-0.1-1.1,0-2.2,0.2-3.3C2.1,8.1,3.1,7.1,4.4,6.7L4.4,6.7z M6.8,10c-1,0-1.8,0.8-1.8,1.8 s0.8,1.8,1.8,1.8s1.8-0.8,1.8-1.8S7.7,10,6.8,10L6.8,10z M12.8,10c-1,0-1.8,0.8-1.8,1.8s0.8,1.8,1.8,1.8s1.8-0.8,1.8-1.8 S13.7,10,12.8,10L12.8,10z"></path>
        </g>
    </g>
</svg>