<svg id="Layer_1" xmlns="http://www.w3.org/2000/svg" xmlns:xlink="http://www.w3.org/1999/xlink" x="0px" y="0px" viewBox="0 0 19.5 19.5" xml:space="preserve" class="svg svg-active"><style type="text/css">
	.21a6{fill:none;stroke:#FFFFFF;stroke-width:1.5;stroke-linecap:round;stroke-linejoin:round;stroke-opacity:0.7;}
</style><g id="Layer_2_00000157993251556173525180000008666248806379057065_"><g id="Layer_1-2"><path class="21a6" d="M9.8,2.1c0.5-0.6,1.2-1,2-1.2c0.8-0.2,1.6-0.2,2.4,0.1c2.1,0.8,3.1,3.1,2.3,5.2c-0.4,1.1-1.3,1.9-2.3,2.3 c-1.6,0.6-3.3,0.2-4.4-1.1 M12.8,18.7h-12v-1c0-3.3,2.7-6,6-6s6,2.7,6,6V18.7z M12.8,18.7h6v-1c0-3.3-2.7-6-6-6 c-1.1,0-2.1,0.3-3,0.8 M10.8,4.7c0,2.2-1.8,4-4,4c-2.2,0-4-1.8-4-4s1.8-4,4-4c1.1,0,2.1,0.4,2.8,1.2C10.3,2.7,10.8,3.7,10.8,4.7z"></path></g></g></svg>