<svg id="avalanche-avax-logo" xmlns="http://www.w3.org/2000/svg" width="36" height="36" viewBox="0 0 36 36">
  <rect id="Rectangle_25464" data-name="Rectangle 25464" width="22.242" height="20.229" transform="translate(6.867 6.16)" fill="#fff"/>
  <path id="Path_34143" data-name="Path 34143" d="M36.5,19a18,18,0,1,1-18-18A18,18,0,0,1,36.5,19ZM13.4,26.163H9.906a2.8,2.8,0,0,1-1.318-.141.888.888,0,0,1-.4-.694c-.013-.261.168-.579.531-1.216l8.625-15.2c.367-.646.553-.968.787-1.088a.89.89,0,0,1,.8,0c.234.119.42.442.787,1.088L21.494,12l.009.016a5.806,5.806,0,0,1,.685,1.412,2.626,2.626,0,0,1,0,1.229,5.828,5.828,0,0,1-.69,1.428L16.968,24.1l-.012.021a5.745,5.745,0,0,1-.881,1.319A2.637,2.637,0,0,1,15,26.061,6.32,6.32,0,0,1,13.4,26.163Zm8.822,0h5.005a2.784,2.784,0,0,0,1.331-.146.885.885,0,0,0,.4-.7c.013-.252-.165-.558-.512-1.158l-.036-.062L25.9,19.809l-.029-.048c-.352-.6-.53-.9-.759-1.013a.88.88,0,0,0-.8,0c-.23.119-.416.433-.783,1.066l-2.5,4.289-.009.015c-.366.631-.549.947-.535,1.206a.9.9,0,0,0,.4.7A2.828,2.828,0,0,0,22.221,26.163Z" transform="translate(-0.5 -1)" fill="#e84142" fill-rule="evenodd"/>
</svg>
