<svg xmlns="http://www.w3.org/2000/svg" width="20" height="20" viewBox="0 0 20 20">
  <path id="Path_34622" data-name="Path 34622" d="M22.964,37.979a9.805,9.805,0,0,1-1.6-4.383A10.024,10.024,0,0,1,30.184,22.5l.125-.013a.911.911,0,0,1,1.011.911v7.39a.911.911,0,0,1-.264.647l-6.679,6.679a.911.911,0,0,1-1.412-.137Zm17.414-5.522h-7.39a.911.911,0,0,0-.647.264L25.661,39.4a.911.911,0,0,0,.137,1.412,9.8,9.8,0,0,0,4.383,1.6,10.024,10.024,0,0,0,11.095-8.824q.007-.062.013-.125a.911.911,0,0,0-.911-1.011Zm-4.5-3.645V26.078a.911.911,0,1,0-1.823,0v2.734a.911.911,0,0,0,1.823,0Zm3.645,0V24.255a.911.911,0,0,0-1.823,0v4.556a.911.911,0,0,0,1.823,0Z" transform="translate(-21.295 -22.482)" fill="rgba(131,143,160,0.5)"/>
</svg>
