<svg id="Layer_x0020_1" xmlns="http://www.w3.org/2000/svg" width="26" height="26" viewBox="0 0 26 26">
  <path id="Path_34144" data-name="Path 34144" d="M13,0A13,13,0,1,1,0,13,13,13,0,0,1,13,0Z" fill="#f5ac37"/>
  <path id="Path_34145" data-name="Path 34145" d="M90.371,106.778h4.94c.105,0,.155,0,.163-.138a9.444,9.444,0,0,0,0-1.511c0-.1-.049-.138-.154-.138H85.488c-.122,0-.154.04-.154.154v1.446c0,.187,0,.187.195.187Zm4.551-3.477a.158.158,0,0,0,0-.113,3.212,3.212,0,0,0-.294-.512,4.145,4.145,0,0,0-.6-.756,1.993,1.993,0,0,0-.374-.366,5.84,5.84,0,0,0-2.438-1.235,6.06,6.06,0,0,0-1.381-.146H85.471c-.122,0-.138.049-.138.154v2.884c0,.122,0,.154.154.154h9.376s.081-.016.1-.065h-.04Zm0,5.167a1.9,1.9,0,0,0-.415,0H85.5c-.122,0-.163,0-.163.163v2.82c0,.13,0,.163.163.163h4.16a2.078,2.078,0,0,0,.593-.04,6.193,6.193,0,0,0,1.764-.39,3.228,3.228,0,0,0,.593-.276h.057a5.278,5.278,0,0,0,2.267-2.282s.057-.123-.007-.155ZM83.7,113.075v-4.493c0-.106,0-.122-.13-.122H81.808c-.1,0-.138,0-.138-.13v-1.544h1.885c.105,0,.146,0,.146-.138v-1.527c0-.1,0-.122-.13-.122H81.808c-.1,0-.138,0-.138-.13v-1.43c0-.09,0-.113.13-.113h1.747c.122,0,.154,0,.154-.154V98.793c0-.13,0-.163.163-.163h6.093a9.284,9.284,0,0,1,1.316.146,7.942,7.942,0,0,1,2.543.942,7.166,7.166,0,0,1,1.43,1.105,7.829,7.829,0,0,1,.869,1.081,6.516,6.516,0,0,1,.635,1.243.212.212,0,0,0,.243.171h1.454c.187,0,.187,0,.195.179v1.333c0,.13-.049.163-.179.163H97.342c-.113,0-.146,0-.138.146a8.3,8.3,0,0,1,0,1.487c0,.138,0,.154.155.154h1.283c.057.073,0,.146,0,.22a1.641,1.641,0,0,1,0,.284v.983c0,.138-.04.179-.163.179H96.943a.2.2,0,0,0-.236.154A6.5,6.5,0,0,1,95,111.087a9.786,9.786,0,0,1-.869.7c-.325.187-.642.382-.975.536a8.784,8.784,0,0,1-1.918.609,10,10,0,0,1-1.9.154H83.7v-.008Z" transform="translate(-76.892 -92.86)" fill="#fefefd"/>
</svg>
