<svg xmlns="http://www.w3.org/2000/svg" width="10" height="12" viewBox="0 0 10 12">
  <g id="Group_69933" data-name="Group 69933" transform="translate(-8.352 -6.596)">
    <g id="Group_76592" data-name="Group 76592" transform="translate(-34.315 6.596)">
      <path id="Path_34620" data-name="Path 34620" d="M52.356,8.457a3.349,3.349,0,0,1-1.189-2.563V4.5a3.5,3.5,0,0,0-3-3.46V.5a.5.5,0,0,0-1,0v.54a3.5,3.5,0,0,0-3,3.46V5.894A3.353,3.353,0,0,1,42.973,8.46.875.875,0,0,0,43.542,10h8.25a.875.875,0,0,0,.564-1.543Z" fill="rgba(131,143,160,0.5)"/>
      <path id="Path_34621" data-name="Path 34621" d="M179.458,449.5A1.878,1.878,0,0,0,181.3,448h-3.674A1.878,1.878,0,0,0,179.458,449.5Z" transform="translate(-131.791 -437.5)" fill="rgba(131,143,160,0.5)"/>
    </g>
  </g>
</svg>
