<svg xmlns="http://www.w3.org/2000/svg" width="11.222" height="11.222" viewBox="0 0 11.222 11.222">
  <g id="Group_81320" data-name="Group 81320" transform="translate(0 0)">
    <g id="Group_81313" data-name="Group 81313" transform="translate(4.931)">
      <g id="Group_81312" data-name="Group 81312">
        <path id="Path_45763" data-name="Path 45763" d="M984.264,1459.592a3.6,3.6,0,0,0-1.361,0l.536-1.978a.15.15,0,0,1,.29,0Z" transform="translate(-982.903 -1457.503)" fill="#ffd800"/>
        <path id="Path_45764" data-name="Path 45764" d="M984.264,1685.833l-.536,1.978a.15.15,0,0,1-.29,0l-.536-1.978a3.6,3.6,0,0,0,1.361,0Z" transform="translate(-982.903 -1676.7)" fill="#ffd800"/>
      </g>
    </g>
    <g id="Group_81315" data-name="Group 81315" transform="translate(1.599 1.599)">
      <g id="Group_81314" data-name="Group 81314">
        <path id="Path_45765" data-name="Path 45765" d="M901.622,1498.529a3.609,3.609,0,0,0-.962.962l-1.02-1.778a.15.15,0,0,1,.2-.2Z" transform="translate(-899.62 -1497.489)" fill="#ffd800"/>
        <path id="Path_45766" data-name="Path 45766" d="M1051.108,1648.015l1.02,1.778a.15.15,0,0,1-.2.2l-1.778-1.02a3.607,3.607,0,0,0,.962-.962Z" transform="translate(-1044.125 -1641.994)" fill="#ffd800"/>
      </g>
    </g>
    <g id="Group_81317" data-name="Group 81317" transform="translate(0 4.931)">
      <g id="Group_81316" data-name="Group 81316">
        <path id="Path_45767" data-name="Path 45767" d="M861.722,1580.773a3.606,3.606,0,0,0,0,1.361l-1.978-.536a.15.15,0,0,1,0-.29Z" transform="translate(-859.633 -1580.773)" fill="#ffd800"/>
        <path id="Path_45768" data-name="Path 45768" d="M1087.963,1580.773l1.978.536a.15.15,0,0,1,0,.29l-1.978.536a3.6,3.6,0,0,0,0-1.361Z" transform="translate(-1078.83 -1580.773)" fill="#ffd800"/>
      </g>
    </g>
    <g id="Group_81319" data-name="Group 81319" transform="translate(1.599 1.599)">
      <g id="Group_81318" data-name="Group 81318">
        <path id="Path_45769" data-name="Path 45769" d="M900.659,1648.015a3.606,3.606,0,0,0,.962.962l-1.778,1.02a.15.15,0,0,1-.2-.2Z" transform="translate(-899.619 -1641.994)" fill="#ffd800"/>
        <path id="Path_45770" data-name="Path 45770" d="M1050.146,1498.53l1.778-1.02a.15.15,0,0,1,.2.2l-1.02,1.778a3.61,3.61,0,0,0-.962-.962Z" transform="translate(-1044.125 -1497.49)" fill="#ffd800"/>
      </g>
    </g>
    <circle id="Ellipse_5935" data-name="Ellipse 5935" cx="2.97" cy="2.97" r="2.97" transform="translate(2.203 8.067) rotate(-80.783)" fill="#ffd800"/>
  </g>
</svg>
