<svg xmlns="http://www.w3.org/2000/svg" width="26" height="26" viewBox="0 0 26 26">
  <g id="Bitcoin" transform="translate(0 -0.8)">
    <rect id="Rectangle_1452" data-name="Rectangle 1452" width="26" height="26" rx="13" transform="translate(0 0.8)" fill="#f5b300"/>
    <path id="Shape" d="M19.438,13.915c.45.123.9.2,1.351.328s.9.2,1.351.328c.123.041.164,0,.2-.123.164-.7.328-1.351.491-2.047.041-.123.082-.164.2-.123.409.123.778.2,1.187.287.123.041.123.082.082.164-.164.655-.328,1.351-.491,2.006a.31.31,0,0,1-.041.164c.328.082.7.164,1.024.246.041,0,.082-.082.123-.123.123-.532.246-1.024.409-1.556l.123-.491c0-.082.041-.123.123-.082.409.123.819.2,1.269.328.041,0,.041.041.082.041-.123.532-.246,1.024-.368,1.515a3.41,3.41,0,0,1-.164.614c-.041.123,0,.164.123.2l1.351.614a3.473,3.473,0,0,1,1.064.983,2.453,2.453,0,0,1,.246,1.924,2.544,2.544,0,0,1-.614,1.187,2.5,2.5,0,0,1-.9.532c-.041,0-.082.041-.164.041.164.123.328.2.491.328a2.582,2.582,0,0,1,.983,1.392,3.21,3.21,0,0,1-.082,1.392,4.022,4.022,0,0,1-.737,1.515,2.543,2.543,0,0,1-1.679.9,8.476,8.476,0,0,1-2.5-.082.172.172,0,0,0-.246.123c-.164.655-.328,1.351-.491,2.006-.041.164-.041.2-.246.123-.368-.082-.778-.2-1.146-.287-.123-.041-.123-.082-.082-.164.164-.7.328-1.392.532-2.047,0-.082.041-.123-.041-.164-.328-.082-.655-.164-1.024-.246-.082.368-.2.737-.287,1.105s-.2.737-.287,1.105c-.041.082-.041.123-.164.082-.409-.123-.819-.2-1.228-.287-.123-.041-.123-.082-.082-.164.164-.7.328-1.392.532-2.047,0-.041.041-.082.041-.164-.942-.246-1.883-.491-2.866-.737.082-.164.123-.287.2-.45.164-.368.328-.737.45-1.064.041-.123.082-.123.2-.123a7.13,7.13,0,0,0,.9.2.455.455,0,0,0,.614-.368c.532-2.088,1.064-4.176,1.556-6.3a.71.71,0,0,0-.491-.819c-.368-.123-.737-.2-1.064-.287-.082,0-.123-.041-.082-.123.123-.45.246-.942.368-1.392C19.4,13.956,19.4,13.956,19.438,13.915Zm2.088,10.112a.143.143,0,0,1,.082.041,11.331,11.331,0,0,0,2.047.409,3.175,3.175,0,0,0,1.392-.123,1.307,1.307,0,0,0,.655-1.924,2.5,2.5,0,0,0-.86-.737,8.262,8.262,0,0,0-2.416-.737c-.123-.041-.123,0-.164.123-.082.409-.2.778-.287,1.187C21.813,22.841,21.69,23.414,21.526,24.028Zm3.439-4.176a2.673,2.673,0,0,0,.45-.082,1.193,1.193,0,0,0,.778-1.76,1.946,1.946,0,0,0-.942-.778,12.513,12.513,0,0,0-1.76-.532c-.123-.041-.164,0-.2.123-.2.86-.409,1.679-.655,2.538-.041.082,0,.123.082.164.164.041.287.082.45.123A12.757,12.757,0,0,0,24.965,19.852Z" transform="translate(-9.981 -6.77)" fill="#fff"/>
  </g>
</svg>
