<svg xmlns="http://www.w3.org/2000/svg" width="24" height="24" viewBox="0 0 24 24"><g><g><path fill="#00aa5d" d="M15.58 8.54H18.751l-.03-.092-.013-.038c-.545-1.136-1.322-2.049-2.31-2.714-1.013-.68-2.218-1.082-3.584-1.193a9.445 9.445 0 0 0-.781-.031c-1.875 0-3.827.549-5.498 1.546-1.541.92-2.691 2.128-3.155 3.314.058-.217.132-.439.22-.66a8.934 8.934 0 0 1 1.735-2.85 8.904 8.904 0 0 1 2.637-2.01 8.222 8.222 0 0 1 4.059-.924 8.739 8.739 0 0 1 2.34.352c1.275.337 2.396.909 3.333 1.699a8.31 8.31 0 0 1 1.883 2.297c.846 1.51 1.023 2.877 1.025 2.889h-.314l-5.232.003-1.393 2.674a78.704 78.704 0 0 1-1.306 2.483c-.063.062-.218.095-.46.095H10.75c-.223 0-.337-.033-.337-.095v-.072c.094-.26.533-1.13 1.305-2.584 1.21-2.367 1.867-3.611 1.956-3.697.22-.26.528-.392.915-.392zm-6.178 2.697c.388 0 .696.133.916.393.073.07.276.471.337.592a.142.142 0 0 1 0 .132l-.862 1.65a.139.139 0 0 1-.126.078.14.14 0 0 1-.126-.077l-.616-1.18H4.39c.166.873.545 1.728 1.127 2.544a9.164 9.164 0 0 0 2.088 2.074c1.669 1.214 3.661 1.91 5.467 1.91a7.36 7.36 0 0 0 2.857-.587 8.129 8.129 0 0 0 2.438-1.588 7.874 7.874 0 0 0 1.714-2.331 6.904 6.904 0 0 0 .69-2.816 8.951 8.951 0 0 1-4.176 7.392 8.773 8.773 0 0 1-2.751 1.14l-.003.001-.128.029-.016.002-.007.002-.016.004-.033.006h-.004a.017.017 0 0 1-.006.002l-.025.006h-.003l-.018.003-.007.001-.007.002a.99.99 0 0 1-.04.007l-.009.002h-.006l-.006.002h-.003a.108.108 0 0 1-.017.004l-.012.003-.008.001h-.004l-.032.006a.094.094 0 0 1-.011.002l-.012.003h-.008l-.023.005-.025.004-.014.003h-.003l-.012.001-.015.003h-.006l-.006.002a.273.273 0 0 0-.02.004l-.036.004-.009.002-.012.002-.036.006-.02.002-.012.002h-.007l-.019.004h-.004l-.004.001-.007.001a.8.8 0 0 1-.036.004l-.017.003c-.012.002-.024.004-.036.004l-.008.002h-.007l-.022.003-.02.002-.014.003a.645.645 0 0 0-.031.004h-.016l-.01.002a.534.534 0 0 1-.042.005h-.007a.035.035 0 0 1-.007.001l-.019.002-.019.002c-.005 0-.01 0-.016.002-.01 0-.02.002-.029.003h-.01l-.006.001h-.005l-.037.005H12.679l-.018.003-.026.002h-.012l-.03.003-.015.001h-.007l-.004.001-.031.002-.017.002h-.004c-.008 0-.016 0-.024.002l-.024.001h-.006l-.01.001c-.014 0-.026.002-.04.003h-.007l-.024.002H12.35l-.006.001-.023.001-.023.001h-.006-.003l-.043.002h-.012l-.05.002h-.004a1.668 1.668 0 0 1-.05.002h-.004-.003l-.049.001h-.009l-.048.001h-.01l-.025.001H11.9c-4.893 0-8.874-4.012-8.874-8.944v-.014-.007l.001-.005v-.002-.015l.001-.004v-.01l.002-.008v-.004l.001-.01.003-.017.002-.01v-.004l.001-.005.002-.009a.597.597 0 0 1 .499-.469v-.006zm7.139 11.82a11.844 11.844 0 0 0 3.785-2.572A12.01 12.01 0 0 0 23.813 12 12.007 12.007 0 0 0 16.54.943 11.756 11.756 0 0 0 11.906 0C10.3 0 8.74.317 7.272.943a11.862 11.862 0 0 0-3.785 2.572A12.005 12.005 0 0 0 0 12a12.006 12.006 0 0 0 3.487 8.485 11.844 11.844 0 0 0 3.785 2.572c1.468.626 3.027.943 4.634.943 1.608 0 3.167-.317 4.635-.943z"/></g></g></svg>