<svg xmlns="http://www.w3.org/2000/svg" xmlns:xlink="http://www.w3.org/1999/xlink" width="363" height="113.264" viewBox="0 0 363 113.264">
  <defs>
    <linearGradient id="linear-gradient" x1="0.5" x2="0.5" y2="1" gradientUnits="objectBoundingBox">
      <stop offset="0" stop-color="#00aa5d" stop-opacity="0.302"/>
      <stop offset="1" stop-color="#00aa5d" stop-opacity="0"/>
    </linearGradient>
  </defs>
  <path id="Path_45613" data-name="Path 45613" d="M5901-6766.392l2.311,16.006,8.8,8.738,7.266,8.063,7.077,2.854H5956.5l7.237-8.667,8.711,12.264h5.568l5.192,2.947h18.281l4.844,3.793,4.819,3.222,7.017,5.031,7.894,2.554,6.56,4.285,5.344-4.285,5.5-4.867h13.854l8.245,2.313,5.184-5.031h23.248l9.9,11.871h20.933l5.239-4.285h5.872l5.425-2.554,5.674,2.554h9.738l5.222-2.554h7.876l9.168-5.031h7.622l7.235-3.222h31.128l6.24-3.793H6264v71.058H5901Z" transform="translate(-5901.004 6766.392)" fill="url(#linear-gradient)"/>
</svg>
