<svg id="Group_938" xmlns="http://www.w3.org/2000/svg" width="36" height="36.415" viewBox="0 0 36 36.415">
  <g id="Group_931" transform="translate(0 1.191)">
    <path id="Path_8573" d="M1141.635,255.21a23.188,23.188,0,0,0-2.558,3.035l-.241-.078a17.514,17.514,0,0,0-4.286-.83c-.438-.034-2.07-.034-2.6,0a15.137,15.137,0,0,0-4.247.836c-.056.022-.107.039-.157.056a22.826,22.826,0,0,0-2.642-3.013,18.369,18.369,0,0,1,14.98-.791c.521.2,1.032.426,1.531.673Z" transform="translate(-1115.282 -253.196)" fill="#f00500"/>
    <path id="Path_8574" d="M988.508,400.239a17.512,17.512,0,0,1-3.142,5.509,19.519,19.519,0,0,1-2.457,2.407,18.133,18.133,0,0,1-7.086,3.5,18.572,18.572,0,0,1-8.708,0,18.094,18.094,0,0,1-7.086-3.5,19.51,19.51,0,0,1-2.457-2.407,17.314,17.314,0,0,1-3.142-16.876,18.318,18.318,0,0,1,1.43-3.086c.264-.449.589-.954.746-1.161.539,2.317,1.2,4.354,1.448,5.089a1.264,1.264,0,0,1-.062.123,20.344,20.344,0,0,0-2.183,7.916c0,.034-.006.073-.006.107a4.894,4.894,0,0,0,.112,1.711,10.978,10.978,0,0,0,3.748,5.089c3.327,2.828,7.838,4.87,11.255,5.106,3.563.241,8.82-1.84,12.321-4.881a17.568,17.568,0,0,0,1.549-1.554,8.5,8.5,0,0,0,.825-1.1c-.011,0,0-.011.023-.022s.033-.028.022-.039.006-.022.022-.028.028-.017.022-.028,0-.022.023-.028a.025.025,0,0,0,.017-.034c-.005-.011,0-.022.011-.022s.023-.017.023-.028.011-.028.022-.028a.024.024,0,0,0,.022-.023.59.59,0,0,1,.073-.129c.084-.129.421-.729.466-.83a7.731,7.731,0,0,0,.617-2.014,5.727,5.727,0,0,0,.051-1.01c-.006-.022-.006-.062-.011-.123-.011-.112-.017-.28-.028-.449-.011-.252-.034-.606-.051-.78a16.456,16.456,0,0,0-2.126-6.833,1.921,1.921,0,0,1-.123-.236.338.338,0,0,1-.023-.045h0c.174-.522.886-2.7,1.453-5.2l.011.011.084.112c.146.2.533.78.707,1.06a17.234,17.234,0,0,1,1.588,14.756Z" transform="translate(-953.47 -376.944)" fill="#f00500"/>
    <path id="Path_8575" d="M1345.412,516.96a1.882,1.882,0,0,1-.544.555,9.381,9.381,0,0,1-3.568,1.346,4.384,4.384,0,0,1-1.846.05c-.157-.078-.18-.14-.123-.342a2.724,2.724,0,0,1,1.094-1.313c.3-.219,1.531-.965,2.1-1.279a7.438,7.438,0,0,1,2.222-.9,1.146,1.146,0,0,1,.421,0c.1.039.213.337.258.7A9.127,9.127,0,0,1,1345.412,516.96Z" transform="translate(-1317.656 -500.37)"/>
    <path id="Path_8576" d="M1107.917,519.8a.61.61,0,0,1-.393.168,6.318,6.318,0,0,1-1.1-.028,11.607,11.607,0,0,1-3.372-.971,4.248,4.248,0,0,1-1.162-.78l-.157-.163-.017-.213a5.858,5.858,0,0,1,.022-1.161,1.519,1.519,0,0,1,.174-.494c.045-.056.045-.056.247-.056a2.433,2.433,0,0,1,.791.146,15.471,15.471,0,0,1,2.968,1.481,5.143,5.143,0,0,1,1.717,1.335A1.122,1.122,0,0,1,1107.917,519.8Z" transform="translate(-1093.378 -501.35)"/>
    <path id="Path_8577" d="M1216.391,632.568c0,.017-.068.286-.152.606s-.151.578-.151.589a.961.961,0,0,1-.18.006h-.18l-.247.583c-.135.32-.258.617-.275.662l-.034.078-.118-.191-.118-.191v-1.554l-.045.011c-.1.023-.774.112-1.072.14a15.284,15.284,0,0,1-3.686-.078c-.2-.028-.365-.05-.37-.045s0,.365.011.808l.017.8-.1.146c-.051.079-.1.146-.1.152-.017.017-.073-.073-.2-.331a3.808,3.808,0,0,1-.315-.853l-.039-.163-.174.011-.174.017-.044-.208c-.022-.112-.051-.286-.062-.381l-.017-.18-.146-.129c-.084-.073-.169-.146-.185-.157a.122.122,0,0,1-.039-.1v-.067l.7.006.7.006.022.073.022.073.241.011c.135.006.561.017.942.028l.7.017.18-.281.185-.281h.236l-.006-.583-.005-.584-.308-.135a3.01,3.01,0,0,1-1.8-1.543,2.139,2.139,0,0,1-.056-.729,2.231,2.231,0,0,1,.033-.729.816.816,0,0,1,.578-.572,13.455,13.455,0,0,1,1.672-.028l1.56.005.174.084a.974.974,0,0,1,.421.331.928.928,0,0,1,.174.662,4.967,4.967,0,0,1-.084,1.077,2.337,2.337,0,0,1-.325.645,2.991,2.991,0,0,1-1.257.881l-.135.05.006.589.006.589.124.011.123.011.168.252.163.253h.752c.416,0,.78.005.813.011.056.011.068.006.123-.09l.068-.1h.645A2.046,2.046,0,0,1,1216.391,632.568Z" transform="translate(-1193.909 -606.311)"/>
    <path id="Path_8578" d="M1255.054,741.877c-.106.062-.18.09-.2.078s-.095-.073-.179-.135l-.152-.123-.157.168c-.342.37-.354.387-.455.393-.157.017-.19-.011-.382-.3-.1-.146-.179-.269-.179-.269s-.073-.011-.157-.017l-.157-.017-.073.152-.073.151-.129-.039a2.647,2.647,0,0,1-.3-.118l-.169-.084v-.32l1.493.005,1.492.006.006.151C1255.3,741.742,1255.3,741.737,1255.054,741.877Z" transform="translate(-1235.534 -714.01)"/>
  </g>
  <path id="Path_8579" d="M1025.958,582.687c-.006-.023-.006-.062-.011-.123a11.931,11.931,0,0,0-8.758,2.71s-1.15-5.274-6.536-5.274-7.384,5.274-7.384,5.274a9.7,9.7,0,0,0-8.517-2.8c0,.034-.006.073-.006.107a4.881,4.881,0,0,0,.113,1.711,10.974,10.974,0,0,0,3.748,5.089c3.327,2.828,7.838,4.87,11.255,5.105,3.563.241,8.82-1.84,12.321-4.881a17.643,17.643,0,0,0,1.548-1.554,8.5,8.5,0,0,0,.825-1.1c-.011,0,0-.011.022-.022s.034-.028.022-.039.006-.022.023-.028.028-.017.022-.028,0-.022.022-.028a.025.025,0,0,0,.017-.034c-.006-.011,0-.022.011-.022s.022-.017.022-.028.011-.028.023-.028a.024.024,0,0,0,.022-.023.591.591,0,0,1,.073-.129c.084-.129.421-.729.466-.83a7.74,7.74,0,0,0,.617-2.014A6.787,6.787,0,0,0,1025.958,582.687Zm-14.026,6.845c-.107.062-.18.09-.2.078s-.1-.073-.179-.135l-.151-.123-.157.168c-.342.37-.353.387-.454.393-.157.017-.191-.011-.381-.3-.1-.146-.18-.269-.18-.269s-.073-.011-.157-.017l-.157-.017-.073.151-.073.151-.129-.039a2.692,2.692,0,0,1-.3-.118l-.168-.084v-.32l1.492.006,1.492.006.006.151C1012.173,589.4,1012.178,589.392,1011.932,589.532Zm2.805-1.01c-.084.32-.151.578-.151.589a.959.959,0,0,1-.179.006h-.18l-.241.589c-.135.32-.258.617-.275.662l-.033.079-.118-.191-.118-.191v-1.554l-.045.011c-.095.023-.774.112-1.071.14a15.291,15.291,0,0,1-3.686-.079c-.2-.028-.365-.05-.37-.045s0,.365.011.808l.017.8-.1.146c-.051.079-.1.146-.1.151-.017.017-.073-.073-.2-.331a3.783,3.783,0,0,1-.314-.853l-.039-.163-.174.011-.174.017-.045-.207c-.022-.112-.05-.286-.062-.382l-.017-.18-.146-.129c-.084-.073-.168-.146-.185-.157a.122.122,0,0,1-.04-.1v-.067l.7.006.7.005.022.073.023.073.241.011c.135.005.561.017.943.028l.7.017.18-.281.185-.28h.236l-.006-.584-.005-.583-.309-.135a3.011,3.011,0,0,1-1.8-1.543,2.154,2.154,0,0,1-.056-.729,2.225,2.225,0,0,1,.034-.729.816.816,0,0,1,.578-.572,13.35,13.35,0,0,1,1.672-.028l1.56.006.174.084a.976.976,0,0,1,.421.331.926.926,0,0,1,.174.662,4.934,4.934,0,0,1-.084,1.077,2.327,2.327,0,0,1-.326.645,2.989,2.989,0,0,1-1.257.881l-.135.05.006.589.006.589.123.011.123.011.168.252.163.253h.752c.415,0,.78.006.814.011.056.011.067.006.123-.09l.067-.1h.645a2.722,2.722,0,0,1,.645.022A3.9,3.9,0,0,0,1014.737,588.522Z" transform="translate(-992.411 -560.473)" fill="#fff"/>
  <path id="Path_8580" d="M985.561,624.1a5.2,5.2,0,0,0-.561.107" transform="translate(-983.231 -602.099)" fill="none"/>
  <path id="Path_8581" d="M1551.7,625.773s-.179-.039-.5-.073" transform="translate(-1517.664 -603.609)" fill="none"/>
  <path id="Path_8582" d="M1026.172,253.6c-.011-.252-.034-.606-.05-.78a16.46,16.46,0,0,0-2.126-6.834,1.927,1.927,0,0,1-.123-.236.322.322,0,0,1-.022-.045h0c.174-.522.886-2.7,1.453-5.2.769-3.389,1.257-7.35-.235-8.539,0,0-2.581-.191-6.037,3.2a23.158,23.158,0,0,0-2.558,3.035l-.241-.079a17.512,17.512,0,0,0-4.286-.83c-.437-.034-2.07-.034-2.6,0a15.14,15.14,0,0,0-4.247.836c-.056.022-.107.039-.157.056a22.856,22.856,0,0,0-2.642-3.013c-3.6-3.406-6.273-3.209-6.273-3.209-1.582,1.229-1.043,5.369-.224,8.87.539,2.317,1.2,4.354,1.447,5.089a1.166,1.166,0,0,1-.062.123A20.341,20.341,0,0,0,995,253.963a9.69,9.69,0,0,1,8.522,2.8s2-5.274,7.383-5.274,6.536,5.274,6.536,5.274a11.957,11.957,0,0,1,8.758-2.71C1026.194,253.941,1026.183,253.773,1026.172,253.6Zm-27.867-9.8s-2.1-5.246-1.56-8.242h0a2.891,2.891,0,0,1,.522-1.285s2.379.236,6.216,4.5a10.967,10.967,0,0,0-1.706,1.105.02.02,0,0,1-.011.006,13.489,13.489,0,0,0-3.462,3.916Zm8.9,7.793a.61.61,0,0,1-.393.168,6.342,6.342,0,0,1-1.105-.028,11.612,11.612,0,0,1-3.372-.971,4.254,4.254,0,0,1-1.162-.78l-.157-.163-.017-.213a5.858,5.858,0,0,1,.022-1.161,1.515,1.515,0,0,1,.174-.494c.045-.056.045-.056.247-.056a2.431,2.431,0,0,1,.791.146,15.466,15.466,0,0,1,2.968,1.481,5.148,5.148,0,0,1,1.717,1.335A1.121,1.121,0,0,1,1007.208,251.6Zm13.218-1.857a1.891,1.891,0,0,1-.544.555,9.378,9.378,0,0,1-3.568,1.347,4.387,4.387,0,0,1-1.846.051c-.157-.079-.18-.14-.123-.342a2.729,2.729,0,0,1,1.094-1.313c.3-.219,1.531-.965,2.1-1.279a7.435,7.435,0,0,1,2.222-.9,1.141,1.141,0,0,1,.421,0c.1.039.213.337.258.7A9.169,9.169,0,0,1,1020.426,249.744Zm-.931-9.858-.011-.006a10.468,10.468,0,0,0-1.65-1.105c3.709-4.264,6-4.5,6-4.5a3.043,3.043,0,0,1,.5,1.285h0c.522,3-1.5,8.247-1.5,8.247a13.367,13.367,0,0,0-3.344-3.922Z" transform="translate(-992.67 -231.963)" fill="#ffa409"/>
  <path id="Path_8583" d="M1377.128,343.2c-.011.011-.017.028-.028.039" transform="translate(-1353.332 -336.959)" fill="none"/>
  <path id="Path_8584" d="M1508.439,476.9c-.028.079-.04.118-.04.118" transform="translate(-1477.266 -463.158)" fill="none"/>
  <g id="Group_934" transform="translate(25.165 2.314)">
    <g id="Group_933" transform="translate(0 0)">
      <g id="Group_932">
        <path id="Path_8585" d="M1408.514,274.485c-.437-.056-2.508-.067-4.853,4.326l-.011-.006A10.462,10.462,0,0,0,1402,277.7c3.709-4.264,6-4.5,6-4.5A2.972,2.972,0,0,1,1408.514,274.485Z" transform="translate(-1402 -273.2)" fill="#ff9300"/>
      </g>
      <path id="Path_8586" d="M1434.949,304.16a13.316,13.316,0,0,0-3.35-3.922c2.345-4.393,4.41-4.382,4.853-4.326h0C1436.974,298.914,1434.949,304.16,1434.949,304.16Z" transform="translate(-1429.939 -294.628)" fill="#ff8300"/>
      <path id="Path_8587" d="M1518.184,296.117l-.084-.017Z" transform="translate(-1511.586 -294.815)" fill="#ff8300"/>
    </g>
  </g>
  <path id="Path_8588" d="M1172.174,343.136c-.056-.079-.118-.157-.174-.236" transform="translate(-1159.74 -336.676)" fill="none"/>
  <path id="Path_8589" d="M1035,480.8c.062.191.1.292.1.292" transform="translate(-1030.426 -466.839)" fill="none"/>
  <g id="Group_937" transform="translate(3.985 2.314)">
    <g id="Group_936" transform="translate(0 0)">
      <g id="Group_935" transform="translate(0.084)">
        <path id="Path_8590" d="M1032.744,277.7a10.967,10.967,0,0,0-1.706,1.105.019.019,0,0,1-.011.006c-2.429-4.4-4.567-4.382-5.027-4.326a2.889,2.889,0,0,1,.522-1.285C1026.527,273.2,1028.906,273.436,1032.744,277.7Z" transform="translate(-1026 -273.2)" fill="#ff9300"/>
      </g>
      <path id="Path_8591" d="M1029.64,300.238a13.439,13.439,0,0,0-3.467,3.922s-2.1-5.246-1.56-8.247h0C1025.067,295.856,1027.21,295.845,1029.64,300.238Z" transform="translate(-1024.523 -294.628)" fill="#ff8300"/>
      <path id="Path_8592" d="M1024.589,296.1l-.09.017Z" transform="translate(-1024.5 -294.815)" fill="#ff8300"/>
    </g>
  </g>
  <path id="Path_8593" d="M1363.344,447.652s-1.8.112-1.571-1.29a1.854,1.854,0,0,1,2.02-1.515c.393.056,1.964.617,1.683,1.8s-.673.954-.9,1.01A8.894,8.894,0,0,1,1363.344,447.652Z" transform="translate(-1338.847 -432.895)" fill="#fff"/>
  <path id="Path_8594" d="M1127.344,447.652s-1.8.112-1.571-1.29a1.853,1.853,0,0,1,2.02-1.515c.392.056,1.964.617,1.683,1.8s-.673.954-.9,1.01A8.9,8.9,0,0,1,1127.344,447.652Z" transform="translate(-1116.088 -432.895)" fill="#fff"/>
</svg>
