<svg xmlns="http://www.w3.org/2000/svg" xmlns:xlink="http://www.w3.org/1999/xlink" width="363" height="113.117" viewBox="0 0 363 113.117">
  <defs>
    <linearGradient id="linear-gradient" x1="0.5" x2="0.5" y2="1" gradientUnits="objectBoundingBox">
      <stop offset="0" stop-color="#00aa5d" stop-opacity="0.302"/>
      <stop offset="1" stop-color="#00aa5d" stop-opacity="0"/>
    </linearGradient>
  </defs>
  <path id="Path_45615" data-name="Path 45615" d="M6047.644-6747.289H6057l5.87,2.107h7.927l6.985-6.033H6093.3l7.144-3.833,5.636,3.833h18.927l9.292,3.926h12.417l14.69,11.409h8.353l6.245,3.182h13.174l3.514-3.182,8.1,3.182,6.865-5.663h12.865l10.851-16.687,6.942,5.4,8.99-16.563h22.172l7.9,13.386,9.892-2.224h6.236l9.51,2.224,8.9,1.609,9.8,1.568,8.706,2.358,9.04-10.979,9.935,3.22,14.662-3.22h27.812l7.844-2.082h10.93v107.256h-363Z" transform="translate(-6047.644 6766.21)" fill="url(#linear-gradient)"/>
</svg>
