<svg xmlns="http://www.w3.org/2000/svg" width="36" height="37.878" viewBox="0 0 36 37.878">
  <g id="tron" transform="translate(-1.55 0.001)">
    <path id="Path_34155" data-name="Path 34155" d="M37.06,11.41c-1.776-1.639-4.232-4.143-6.232-5.918l-.118-.083a2.261,2.261,0,0,0-.657-.367h0C25.229,4.143,2.781-.054,2.343,0A.829.829,0,0,0,2,.13L1.887.219a1.32,1.32,0,0,0-.308.5L1.55.793v.485c2.527,7.037,12.506,30.089,14.47,35.5.118.367.343,1.065.763,1.1h.095c.225,0,1.184-1.267,1.184-1.267s17.14-20.785,18.874-23a5.6,5.6,0,0,0,.592-.876A1.426,1.426,0,0,0,37.06,11.41Zm-14.6,2.421,7.315-6.066,4.291,3.953Zm-2.841-.4L7.025,3.113,27.4,6.871Zm1.136,2.7,12.89-2.077L18.909,31.817Zm-15.441-12L18.565,15.387,16.648,31.829Z" transform="translate(0 0)" fill="#ff060a"/>
  </g>
</svg>
