<svg xmlns="http://www.w3.org/2000/svg" width="26" height="22.618" viewBox="0 0 26 22.618">
  <g id="tether-usdt-logo" transform="translate(-0.005 0)">
    <path id="Path_34153" data-name="Path 34153" d="M4.766.111.025,10.069a.193.193,0,0,0,.041.225l12.8,12.269a.2.2,0,0,0,.27,0L25.945,10.3a.193.193,0,0,0,.041-.225L21.245.112A.192.192,0,0,0,21.07,0H4.942a.192.192,0,0,0-.176.111Z" transform="translate(0)" fill="#50af95" fill-rule="evenodd"/>
    <path id="Path_34154" data-name="Path 34154" d="M73.845,48.24h0c-.092.007-.567.035-1.626.035-.843,0-1.441-.025-1.651-.035h0c-3.256-.143-5.687-.71-5.687-1.389s2.431-1.245,5.687-1.39v2.215c.213.015.823.051,1.665.051,1.011,0,1.517-.042,1.609-.051V45.463c3.249.145,5.675.712,5.675,1.389s-2.424,1.244-5.675,1.388h0Zm0-3.007V43.252h4.535V40.23H66.033v3.022h4.534v1.981c-3.685.169-6.457.9-6.457,1.774s2.771,1.6,6.457,1.774v6.35h3.277V48.779c3.677-.169,6.444-.9,6.444-1.773s-2.765-1.6-6.444-1.773h0Zm0,0Z" transform="translate(-59.194 -37.149)" fill="#fff" fill-rule="evenodd"/>
  </g>
</svg>
