<svg xmlns="http://www.w3.org/2000/svg" width="41" height="41.201" viewBox="0 0 41 41.201">
  <g id="Light_Text_fields_2._Outlined_6_States_" data-name="Light 🌕/ Text fields/2. Outlined/ (6 States)" transform="translate(0.5 0.5)">
    <g id="Group_77118" data-name="Group 77118" transform="translate(2.867 3.132)">
      <g id="Group_77117" data-name="Group 77117">
        <path id="Path_45561" data-name="Path 45561" d="M450.125,461.56a8.826,8.826,0,0,1,15.982-7.314,12.753,12.753,0,0,1,.809,1.88,8.977,8.977,0,0,0,1.234,2.508.6.6,0,0,1,.122.471.685.685,0,0,1-.313.46.637.637,0,0,1-.91-.21,7.676,7.676,0,0,1-.87-1.42c-.182-.408-.337-.832-.486-1.242a10.112,10.112,0,0,0-1.066-2.3,7.52,7.52,0,0,0-9.379-2.53,7.176,7.176,0,0,0-3.5,3.452,7.3,7.3,0,0,0-.585,4.93,23.778,23.778,0,0,0,3.415,7.4c.18.275.374.548.562.813.147.207.3.421.445.636a.653.653,0,0,1-.107.929.746.746,0,0,1-.113.077.654.654,0,0,1-.809-.2,3.822,3.822,0,0,1-.328-.381,20.411,20.411,0,0,1-2.066-3.289A23.168,23.168,0,0,1,450.125,461.56Z" transform="translate(-441.491 -441.679)" fill="#00aa5d"/>
        <path id="Path_45562" data-name="Path 45562" d="M381.376,394.334a17.017,17.017,0,0,0,.816,3.3l.106.333a.666.666,0,0,1-.256.866.791.791,0,0,1-.107.048c-.281.1-.664.1-.9-.5a13.048,13.048,0,0,1-.222-9.727,12.839,12.839,0,0,1,17.852-7.029A12.5,12.5,0,0,1,402.89,385l.008.011c.175.276.363.682-.024,1.01a.692.692,0,0,1-.972-.136,1.72,1.72,0,0,1-.147-.162l-.026-.031a11.483,11.483,0,0,0-7-3.961,11.576,11.576,0,0,0-13.358,12.6Z" transform="translate(-375.915 -376.173)" fill="#cbcbcb"/>
        <path id="Path_45563" data-name="Path 45563" d="M553.962,557.835a2.734,2.734,0,0,1,2.679-3.658,2.658,2.658,0,0,1,2.488,1.958,15.359,15.359,0,0,0,2.9,5.319,1.021,1.021,0,0,1,.3.7.631.631,0,0,1-.257.432c-.528.425-.956-.1-1.1-.278a16.3,16.3,0,0,1-2.217-3.443c-.188-.407-.349-.829-.506-1.237-.172-.448-.349-.911-.559-1.349a1.26,1.26,0,0,0-1.743-.641,1.362,1.362,0,0,0-.737,1.627,19.986,19.986,0,0,0,.888,2.38,19.752,19.752,0,0,0,9.787,9.751,1.988,1.988,0,0,1,.541.343.6.6,0,0,1,.106.764.615.615,0,0,1-.244.253.642.642,0,0,1-.462.049,2.448,2.448,0,0,1-.448-.169l-.028-.013a20.9,20.9,0,0,1-9.772-9.02A19.616,19.616,0,0,1,553.962,557.835Z" transform="translate(-539.548 -539.92)" fill="#00aa5d"/>
        <path id="Path_45564" data-name="Path 45564" d="M469.975,359.543a4.66,4.66,0,0,1-2.818-3.07,14.471,14.471,0,0,0-.539-1.345c-.158-.359-.322-.731-.457-1.106q-.114-.17-.224-.339c-.165-.25-.321-.487-.488-.722a13.337,13.337,0,0,0-12.349-5.952,12.466,12.466,0,0,0-6.675,2.395c-.276.2-.788.572-1.189.034a.618.618,0,0,1-.137-.477.99.99,0,0,1,.476-.606,14.944,14.944,0,0,1,16.83-.263,14.6,14.6,0,0,1,5.976,7.8,3.45,3.45,0,0,0,2.1,2.4.881.881,0,0,1,.543.428.738.738,0,0,1-.3.857A.93.93,0,0,1,469.975,359.543Z" transform="translate(-437.211 -343.591)" fill="#cbcbcb"/>
        <path id="Path_45565" data-name="Path 45565" d="M346.574,437.828a15.128,15.128,0,0,1,1.208-13.675,12.7,12.7,0,0,1,1.682-2.192c.385-.4.744-.45,1.067-.143.4.376.106.761-.09,1.021-.06.079-.125.153-.189.225-.031.035-.062.07-.092.105a13.51,13.51,0,0,0-3.346,9.267,19.362,19.362,0,0,0,2.276,7.906,31.538,31.538,0,0,0,2.828,4.877.677.677,0,0,1-.089,1.031.785.785,0,0,1-.1.062c-.218.119-.522.136-.86-.276-.136-.166-.265-.341-.373-.491a27.3,27.3,0,0,1-1.842-3.078A26.518,26.518,0,0,1,346.574,437.828Z" transform="translate(-343.443 -415.131)" fill="#cbcbcb"/>
        <path id="Path_45566" data-name="Path 45566" d="M541.419,489.806a5.539,5.539,0,0,0-3.164-3.421,5.431,5.431,0,0,0-4.563.247c-.058.03-.117.065-.177.1a1.035,1.035,0,0,1-.777.224.68.68,0,0,1-.4-.388c-.282-.563.151-.808.468-.987a2.558,2.558,0,0,0,.243-.149l.01-.007.011-.005a7.572,7.572,0,0,1,1.974-.665,6.806,6.806,0,0,1,7.712,4.774,11.5,11.5,0,0,0,5.107,6.418,11.14,11.14,0,0,0,3.23,1.3c.235.054.858.2.708.872a.633.633,0,0,1-.267.425l-.023.013a1.031,1.031,0,0,1-.737,0l-.024-.006-.1-.025A12.747,12.747,0,0,1,541.419,489.806Z" transform="translate(-519.258 -474.479)" fill="#00aa5d"/>
        <path id="Path_45567" data-name="Path 45567" d="M484.094,539.2a6.291,6.291,0,0,1,.8-4.963.639.639,0,0,1,.921-.31c.252.128.5.4.236.944-.05.1-.105.207-.159.306l-.013.024a5.172,5.172,0,0,0-.41,4.045,18.965,18.965,0,0,0,1.445,3.592l.007.015a8.2,8.2,0,0,0,.764,1.425c.1.155.192.31.286.467a22.994,22.994,0,0,0,5.757,6.415c.5.392,1.042.746,1.565,1.089.2.129.393.258.589.389.43.289.527.62.288.984a.709.709,0,0,1-.248.24.787.787,0,0,1-.772-.086c-.056-.031-.109-.066-.163-.1-.033-.022-.066-.043-.1-.063a23.69,23.69,0,0,1-4.753-3.843A24,24,0,0,1,484.094,539.2Z" transform="translate(-473.735 -520.771)" fill="#00aa5d"/>
        <path id="Path_45568" data-name="Path 45568" d="M383.876,313.377a.62.62,0,0,1-.263.317.957.957,0,0,1-.776-.071l-.061-.023c-.192-.073-.385-.153-.571-.23a9.862,9.862,0,0,0-1.068-.4,15.573,15.573,0,0,0-15.549,3.587,15.827,15.827,0,0,0-1.658,1.847l-.3.374a.765.765,0,0,1-.636.32.587.587,0,0,1-.463-.314v0a.756.756,0,0,1,.129-.866c.079-.1.157-.206.236-.309.239-.314.486-.64.756-.938a16.923,16.923,0,0,1,10.979-5.657,16.554,16.554,0,0,1,8.684,1.389C383.557,312.513,384.137,312.773,383.876,313.377Z" transform="translate(-359.403 -310.912)" fill="#cbcbcb"/>
        <path id="Path_45569" data-name="Path 45569" d="M416.354,575.515a17.924,17.924,0,0,1-1.509-5.1,9.646,9.646,0,0,1,.028-2.216,1.178,1.178,0,0,1,.183-.541.582.582,0,0,1,.587-.209c.617.085.56.678.542.872-.014.15-.025.307-.034.481a8.821,8.821,0,0,0,.292,2.979,27.693,27.693,0,0,0,8.237,12.988,3.2,3.2,0,0,1,.481.5.619.619,0,0,1-.054.825.649.649,0,0,1-.164.13.62.62,0,0,1-.6-.018,2.393,2.393,0,0,1-.468-.334,29.555,29.555,0,0,1-6.487-8.158A16.609,16.609,0,0,1,416.354,575.515Z" transform="translate(-408.69 -552.41)" fill="#cbcbcb"/>
        <path id="Path_45570" data-name="Path 45570" d="M628.561,426.147a9.513,9.513,0,0,0-5.1-5.866,11.45,11.45,0,0,0-2.227-.737c-.588-.146-.63-.511-.562-.791s.269-.585.851-.481c.126.023.25.054.365.084a10.724,10.724,0,0,1,7.936,7.35,7.566,7.566,0,0,0,4.259,4.689,7.129,7.129,0,0,0,1.544.469.669.669,0,0,1,.249,1.23h0l-.025.015a.947.947,0,0,1-.731.018l-.045-.012A8.708,8.708,0,0,1,628.561,426.147Z" transform="translate(-602.479 -411.961)" fill="#cbcbcb"/>
        <path id="Path_45571" data-name="Path 45571" d="M590.71,593.7l0,0c-.058-.119-.123-.246-.191-.379-.165-.322-.352-.686-.505-1.063-.049-.121-.1-.242-.15-.363a8.478,8.478,0,0,1-.549-1.608c-.118-.593.212-.774.419-.829a.668.668,0,0,1,.829.444c.048.11.1.224.137.342a17.66,17.66,0,0,0,7.318,9.337,17.318,17.318,0,0,0,3.189,1.593c.217.084.793.306.572.917a.663.663,0,0,1-.294.376.566.566,0,0,1-.185.062,1.271,1.271,0,0,1-.6-.1l-.094-.036-.023-.009a18.933,18.933,0,0,1-9.874-8.677Z" transform="translate(-572.957 -573.109)" fill="#00aa5d"/>
        <path id="Path_45572" data-name="Path 45572" d="M312.537,482.245l-.106-.2,0,0a16.993,16.993,0,0,1-.2-14.876c.123-.267.379-.822.978-.575a.6.6,0,0,1,.352.316,1.036,1.036,0,0,1-.118.766l-.005.012c-.014.034-.03.067-.046.1s-.022.046-.033.069a15.657,15.657,0,0,0-.289,12.352,10.778,10.778,0,0,0,.527,1.115c.125.24.254.488.37.74a.686.686,0,0,1-.235.986l-.033.017c-.2.1-.583.181-.912-.373C312.7,482.545,312.616,482.393,312.537,482.245Z" transform="translate(-310.61 -457.411)" fill="#cbcbcb"/>
        <path id="Path_45573" data-name="Path 45573" d="M520.961,529.288l0-.011c-.12-.285-.249-.577-.374-.859a15.632,15.632,0,0,1-1.146-3.209,4.726,4.726,0,0,1,5.043-5.672,4.645,4.645,0,0,1,3,1.4,1.016,1.016,0,0,1,.354.67.641.641,0,0,1-.22.457c-.464.448-.921,0-1.071-.148a5.061,5.061,0,0,0-.491-.43,3.4,3.4,0,0,0-5.275,3.582,22.184,22.184,0,0,0,1.441,3.656c.031.064.069.131.11.2a1.027,1.027,0,0,1,.21.767.64.64,0,0,1-.337.368l-.041.021c-.594.3-.836-.153-1.03-.514-.05-.093-.1-.188-.157-.271Z" transform="translate(-507.108 -507.295)" fill="#00aa5d"/>
        <path id="Path_45574" data-name="Path 45574" d="M661.01,585.065c-.139-.363-.349-.91.247-1.151.631-.254.9.4,1,.642a13.539,13.539,0,0,0,6.253,6.876,14.761,14.761,0,0,0,2.871,1.111.651.651,0,0,1,.518.833.633.633,0,0,1-.3.427.788.788,0,0,1-.552.05c-.152-.033-.3-.076-.422-.114a15,15,0,0,1-8.918-7.159A10.054,10.054,0,0,1,661.01,585.065Z" transform="translate(-640.332 -567.86)" fill="#00aa5d"/>
        <path id="Path_45575" data-name="Path 45575" d="M753.016,370.22a1.118,1.118,0,0,1-.44-.711l-.013-.039c0-.015-.01-.03-.015-.044s-.018-.05-.025-.075a15.5,15.5,0,0,0-5.842-8.3l-.035-.026a2.175,2.175,0,0,1-.356-.3.576.576,0,0,1-.057-.766.6.6,0,0,1,.793-.219,3.166,3.166,0,0,1,.484.3,16.479,16.479,0,0,1,4.925,5.555h0a16.262,16.262,0,0,1,1.439,3.448l0,.015c.1.349.242.86-.209,1.107a.914.914,0,0,1-.147.063A.643.643,0,0,1,753.016,370.22Z" transform="translate(-720.592 -356.816)" fill="#cbcbcb"/>
        <path id="Path_45576" data-name="Path 45576" d="M428.631,421.639a10.413,10.413,0,0,1,4.475-4.6c.083-.045.165-.092.247-.139.181-.1.368-.21.562-.3a10.474,10.474,0,0,1,3.5-.915.8.8,0,0,1,.608.153.65.65,0,0,1,.213.469c.016.231-.052.628-.688.692l-.017,0c-.112.011-.228.023-.34.04a9.508,9.508,0,0,0-7.5,5.459l-.055.117a2.932,2.932,0,0,1-.2.383.7.7,0,0,1-.245.232.626.626,0,0,1-.539.021.592.592,0,0,1-.367-.744A4.417,4.417,0,0,1,428.631,421.639Z" transform="translate(-421.363 -409.54)" fill="#cbcbcb"/>
        <path id="Path_45577" data-name="Path 45577" d="M575.311,718.242l0,0a.664.664,0,0,1,.115-.97.622.622,0,0,1,.921.134c.144.169.28.349.411.522.087.115.174.231.264.344a22.194,22.194,0,0,0,6.976,5.8c.294.156.84.447.554,1.044a.708.708,0,0,1-.286.33.482.482,0,0,1-.078.034,1.051,1.051,0,0,1-.776-.178l-.062-.032a19.538,19.538,0,0,1-2.3-1.395A22.73,22.73,0,0,1,575.311,718.242Z" transform="translate(-559.649 -693.315)" fill="#00aa5d"/>
        <path id="Path_45578" data-name="Path 45578" d="M415.633,718.421a.6.6,0,0,1,.356-.325.656.656,0,0,1,.517-.013.988.988,0,0,1,.487.573,12.3,12.3,0,0,0,.684,1.409,31.674,31.674,0,0,0,4.374,6.018c.182.192.608.641.153,1.12a.81.81,0,0,1-.2.156.548.548,0,0,1-.271.07.941.941,0,0,1-.652-.376,29.428,29.428,0,0,1-5.328-7.859A1.026,1.026,0,0,1,415.633,718.421Z" transform="translate(-409.443 -694.179)" fill="#cbcbcb"/>
        <path id="Path_45579" data-name="Path 45579" d="M781.7,503.894a6.891,6.891,0,0,1-4.345-3.4l-.005-.009-.28-.721c-.264-.678-.562-1.447-.849-2.2a.6.6,0,0,1,.253-.787.671.671,0,0,1,.817.109,1.627,1.627,0,0,1,.429.728c.073.2.143.409.212.614.142.421.288.856.471,1.264a5.329,5.329,0,0,0,3.681,3.125c.265.069.6.154.695.523a.679.679,0,0,1-.329.756.938.938,0,0,1-.7.011Z" transform="translate(-748.882 -485.797)" fill="#cbcbcb"/>
        <path id="Path_45580" data-name="Path 45580" d="M709.115,710.5l-.014-.016a.642.642,0,0,1,.015-.913.728.728,0,0,1,1.031.058,15.687,15.687,0,0,0,5.112,2.8.983.983,0,0,1,.619.424.64.64,0,0,1,.005.512.649.649,0,0,1-.293.374,1,1,0,0,1-.781-.024,18.164,18.164,0,0,1-3.452-1.572A12.739,12.739,0,0,1,709.115,710.5Z" transform="translate(-685.578 -686.018)" fill="#00aa5d"/>
        <path id="Path_45581" data-name="Path 45581" d="M776.063,630.482a.649.649,0,0,1-.11-.977.615.615,0,0,1,.932-.045,10.778,10.778,0,0,0,4.379,2.068.705.705,0,0,1,.32.176.618.618,0,0,1,.189.528.717.717,0,0,1-.365.538l-.025.014-.028,0c-.02,0-.045,0-.072.009a.97.97,0,0,1-.317.007A10.519,10.519,0,0,1,776.063,630.482Z" transform="translate(-748.52 -610.613)" fill="#00aa5d"/>
        <path id="Path_45582" data-name="Path 45582" d="M560.825,809.621c-.054-.059-.105-.115-.153-.165l-.017-.023a.69.69,0,0,1,.094-.928.621.621,0,0,1,.823-.033,2.345,2.345,0,0,1,.366.324l.015.016a24.265,24.265,0,0,0,3.206,2.768,1.068,1.068,0,0,1,.516.624.643.643,0,0,1-.152.486.762.762,0,0,1-.239.216c-.35.191-.722-.08-.94-.24a29.864,29.864,0,0,1-3.087-2.594C561.1,809.921,560.955,809.762,560.825,809.621Z" transform="translate(-545.875 -779.182)" fill="#00aa5d"/>
      </g>
    </g>
    <g id="_Container_l_Color" data-name=" Container l Color" transform="translate(0 0)">
      <path id="Path_45587" data-name="Path 45587" d="M1336.7,672.6h-3.906a5.789,5.789,0,0,1-5.789-5.789v-3.506" transform="translate(-1327 -632.604)" fill="none" stroke="#00aa5d" stroke-linecap="round" stroke-miterlimit="10" stroke-width="1"/>
      <path id="Path_45588" data-name="Path 45588" d="M9.7,9.3H5.789A5.789,5.789,0,0,1,0,3.506V0" transform="translate(9.496) rotate(90)" fill="none" stroke="#00aa5d" stroke-linecap="round" stroke-miterlimit="10" stroke-width="1"/>
      <path id="Path_45589" data-name="Path 45589" d="M9.7,9.3H5.789A5.789,5.789,0,0,1,0,3.506V0" transform="translate(40 9.496) rotate(180)" fill="none" stroke="#00aa5d" stroke-linecap="round" stroke-miterlimit="10" stroke-width="1"/>
      <path id="Path_45590" data-name="Path 45590" d="M9.7,9.3H5.789A5.789,5.789,0,0,1,0,3.506V0" transform="translate(30.504 40.201) rotate(-90)" fill="none" stroke="#00aa5d" stroke-linecap="round" stroke-miterlimit="10" stroke-width="1"/>
    </g>
  </g>
</svg>
