<svg xmlns="http://www.w3.org/2000/svg" width="24" height="24" viewBox="0 0 24 24">
  <path id="Path_45638" data-name="Path 45638" d="M18,6A12,12,0,1,0,30,18,12,12,0,0,0,18,6Zm1.388,18.133v1.262H16.7V24.14a3.931,3.931,0,0,1-3.552-4.027h3.442A1.259,1.259,0,0,0,18,21.335c.7,0,1.365-.356,1.365-.977,0-.754-.934-.973-2.08-1.256-1.749-.435-3.976-.975-3.976-3.72,0-1.955,1.212-3.223,3.269-3.591V10.605h2.69v1.2a3.6,3.6,0,0,1,3.2,3.752l-3.343.008c0-.707-.566-1.052-1.257-1.052-.6,0-1.174.247-1.174.768,0,.69.906.916,2.054,1.207,1.783.46,4.11,1.044,4.11,3.806,0,2.156-1.392,3.457-3.467,3.841Z" transform="translate(-6 -6)" fill="#838fa0"/>
</svg>
