<svg xmlns="http://www.w3.org/2000/svg" width="40.8" height="41" viewBox="0 0 40.8 41">
  <g id="Light_Text_fields_2._Outlined_6_States_" data-name="Light 🌕/ Text fields/2. Outlined/ (6 States)" transform="translate(0.5 0.5)">
    <g id="Group_77118" data-name="Group 77118" transform="translate(2.853 3.116)">
      <g id="Group_77117" data-name="Group 77117">
        <path id="Path_45561" data-name="Path 45561" d="M450.122,461.5a8.782,8.782,0,0,1,15.9-7.278,12.7,12.7,0,0,1,.805,1.871,8.935,8.935,0,0,0,1.227,2.5.6.6,0,0,1,.121.469.682.682,0,0,1-.311.458.634.634,0,0,1-.906-.209,7.64,7.64,0,0,1-.865-1.413c-.181-.406-.335-.828-.484-1.236a10.063,10.063,0,0,0-1.061-2.285,7.482,7.482,0,0,0-9.332-2.517,7.139,7.139,0,0,0-3.48,3.435,7.262,7.262,0,0,0-.582,4.9,23.662,23.662,0,0,0,3.4,7.359c.179.273.372.546.56.809.147.206.3.419.443.633a.65.65,0,0,1-.106.925.753.753,0,0,1-.113.076.65.65,0,0,1-.8-.2,3.8,3.8,0,0,1-.327-.379,20.3,20.3,0,0,1-2.056-3.272A23.057,23.057,0,0,1,450.122,461.5Z" transform="translate(-441.532 -441.72)" fill="#cbcbcb"/>
        <path id="Path_45562" data-name="Path 45562" d="M381.369,394.263a16.936,16.936,0,0,0,.812,3.283l.106.331a.663.663,0,0,1-.255.862.79.79,0,0,1-.107.048c-.279.1-.661.1-.892-.5a12.983,12.983,0,0,1-.221-9.678,12.775,12.775,0,0,1,17.763-6.994,12.437,12.437,0,0,1,4.2,3.357l.008.011c.174.275.361.679-.024,1.005a.688.688,0,0,1-.967-.135,1.724,1.724,0,0,1-.146-.161l-.025-.03a11.425,11.425,0,0,0-6.961-3.941,11.518,11.518,0,0,0-13.292,12.542Z" transform="translate(-375.935 -376.194)" fill="#cbcbcb"/>
        <path id="Path_45563" data-name="Path 45563" d="M553.962,557.817a2.721,2.721,0,0,1,2.665-3.64,2.645,2.645,0,0,1,2.475,1.948,15.283,15.283,0,0,0,2.889,5.293,1.015,1.015,0,0,1,.3.7.628.628,0,0,1-.256.43c-.526.423-.951-.1-1.091-.277a16.213,16.213,0,0,1-2.206-3.426c-.187-.4-.348-.825-.5-1.231-.171-.446-.348-.906-.557-1.342a1.254,1.254,0,0,0-1.735-.638,1.355,1.355,0,0,0-.733,1.619,19.878,19.878,0,0,0,.884,2.368,19.653,19.653,0,0,0,9.738,9.7,1.977,1.977,0,0,1,.538.342.6.6,0,0,1,.106.76.609.609,0,0,1-.243.252.638.638,0,0,1-.46.048,2.441,2.441,0,0,1-.446-.168l-.028-.013a20.8,20.8,0,0,1-9.724-8.975A19.534,19.534,0,0,1,553.962,557.817Z" transform="translate(-539.619 -539.991)" fill="#cbcbcb"/>
        <path id="Path_45564" data-name="Path 45564" d="M469.851,359.473a4.637,4.637,0,0,1-2.8-3.055,14.4,14.4,0,0,0-.537-1.338c-.158-.358-.32-.727-.455-1.1q-.113-.17-.223-.337c-.164-.249-.32-.485-.485-.718A13.27,13.27,0,0,0,453.059,347a12.4,12.4,0,0,0-6.642,2.383c-.274.2-.784.569-1.183.034a.615.615,0,0,1-.136-.474.985.985,0,0,1,.474-.6,14.869,14.869,0,0,1,16.746-.262,14.53,14.53,0,0,1,5.946,7.764,3.433,3.433,0,0,0,2.09,2.385.877.877,0,0,1,.541.426.735.735,0,0,1-.294.853A.925.925,0,0,1,469.851,359.473Z" transform="translate(-437.25 -343.601)" fill="#cbcbcb"/>
        <path id="Path_45565" data-name="Path 45565" d="M346.568,437.747a15.052,15.052,0,0,1,1.2-13.607,12.633,12.633,0,0,1,1.674-2.181c.383-.4.74-.448,1.061-.143.394.374.106.757-.09,1.016-.06.079-.125.152-.188.223l-.092.1a13.442,13.442,0,0,0-3.329,9.221,19.266,19.266,0,0,0,2.265,7.867,31.369,31.369,0,0,0,2.814,4.852.674.674,0,0,1-.089,1.026.789.789,0,0,1-.095.061c-.217.118-.519.136-.856-.275-.136-.165-.263-.339-.371-.488a27.134,27.134,0,0,1-1.833-3.063A26.4,26.4,0,0,1,346.568,437.747Z" transform="translate(-343.453 -415.163)" fill="#cbcbcb"/>
        <path id="Path_45566" data-name="Path 45566" d="M541.373,489.781a5.512,5.512,0,0,0-3.148-3.4,5.4,5.4,0,0,0-4.54.246c-.057.03-.117.065-.177.1a1.029,1.029,0,0,1-.774.223.676.676,0,0,1-.4-.386c-.28-.56.151-.8.465-.982a2.532,2.532,0,0,0,.242-.148l.01-.007.011-.005a7.533,7.533,0,0,1,1.964-.661,6.772,6.772,0,0,1,7.674,4.75,11.443,11.443,0,0,0,5.082,6.386,11.086,11.086,0,0,0,3.214,1.3c.233.054.854.2.7.867a.628.628,0,0,1-.266.423l-.023.013a1.025,1.025,0,0,1-.733,0l-.024-.006-.1-.025A12.683,12.683,0,0,1,541.373,489.781Z" transform="translate(-519.323 -474.53)" fill="#cbcbcb"/>
        <path id="Path_45567" data-name="Path 45567" d="M484.093,539.171a6.259,6.259,0,0,1,.8-4.938.636.636,0,0,1,.917-.308c.251.127.5.394.235.94-.049.1-.1.206-.158.3l-.013.024a5.146,5.146,0,0,0-.408,4.025,18.859,18.859,0,0,0,1.438,3.574l.007.015a8.143,8.143,0,0,0,.76,1.418c.1.154.191.309.284.465a22.878,22.878,0,0,0,5.729,6.383c.5.39,1.037.742,1.557,1.084.2.128.391.256.586.387.428.288.525.617.287.979a.705.705,0,0,1-.246.239.783.783,0,0,1-.768-.085c-.056-.031-.109-.065-.162-.1l-.1-.063a23.571,23.571,0,0,1-4.73-3.823A23.881,23.881,0,0,1,484.093,539.171Z" transform="translate(-473.786 -520.836)" fill="#cbcbcb"/>
        <path id="Path_45568" data-name="Path 45568" d="M383.769,313.365a.618.618,0,0,1-.261.315.952.952,0,0,1-.772-.07l-.061-.023c-.191-.072-.383-.152-.568-.229a9.834,9.834,0,0,0-1.063-.395,15.5,15.5,0,0,0-15.471,3.569,15.735,15.735,0,0,0-1.65,1.838l-.3.372a.761.761,0,0,1-.633.318.584.584,0,0,1-.461-.312v0a.751.751,0,0,1,.128-.862q.118-.153.235-.307c.238-.313.483-.636.752-.933a16.839,16.839,0,0,1,10.925-5.629,16.471,16.471,0,0,1,8.641,1.382C383.452,312.5,384.029,312.763,383.769,313.365Z" transform="translate(-359.418 -310.912)" fill="#cbcbcb"/>
        <path id="Path_45569" data-name="Path 45569" d="M416.346,575.475a17.833,17.833,0,0,1-1.5-5.072,9.6,9.6,0,0,1,.027-2.2,1.175,1.175,0,0,1,.182-.538.579.579,0,0,1,.584-.208c.614.085.558.674.539.868-.014.15-.025.306-.034.479a8.78,8.78,0,0,0,.291,2.964,27.555,27.555,0,0,0,8.2,12.923,3.192,3.192,0,0,1,.479.494.616.616,0,0,1-.053.821.644.644,0,0,1-.164.13.618.618,0,0,1-.593-.017,2.379,2.379,0,0,1-.465-.332,29.4,29.4,0,0,1-6.454-8.117A16.512,16.512,0,0,1,416.346,575.475Z" transform="translate(-408.72 -552.485)" fill="#cbcbcb"/>
        <path id="Path_45570" data-name="Path 45570" d="M628.522,426.108a9.466,9.466,0,0,0-5.075-5.837,11.393,11.393,0,0,0-2.216-.734c-.584-.145-.627-.508-.559-.787s.267-.582.846-.478c.126.022.249.054.364.083a10.671,10.671,0,0,1,7.9,7.313,7.528,7.528,0,0,0,4.238,4.665,7.089,7.089,0,0,0,1.537.466.665.665,0,0,1,.248,1.224h0l-.025.015a.942.942,0,0,1-.728.018l-.045-.012A8.664,8.664,0,0,1,628.522,426.108Z" transform="translate(-602.57 -411.992)" fill="#cbcbcb"/>
        <path id="Path_45571" data-name="Path 45571" d="M590.7,593.682v0c-.058-.119-.123-.245-.19-.377-.165-.32-.351-.683-.5-1.058-.049-.121-.1-.241-.15-.361a8.43,8.43,0,0,1-.546-1.6c-.117-.59.211-.77.417-.825a.664.664,0,0,1,.825.441c.047.109.1.223.136.34a17.572,17.572,0,0,0,7.281,9.29,17.227,17.227,0,0,0,3.173,1.585c.216.083.789.3.569.912a.659.659,0,0,1-.292.374.562.562,0,0,1-.184.061,1.26,1.26,0,0,1-.592-.1l-.094-.036-.023-.009a18.84,18.84,0,0,1-9.825-8.633Z" transform="translate(-573.038 -573.19)" fill="#cbcbcb"/>
        <path id="Path_45572" data-name="Path 45572" d="M312.528,482.167l-.106-.2,0,0a16.909,16.909,0,0,1-.2-14.8c.122-.266.377-.818.973-.573a.6.6,0,0,1,.35.314,1.03,1.03,0,0,1-.117.762l-.005.012c-.014.034-.03.066-.046.1s-.022.045-.032.068a15.578,15.578,0,0,0-.288,12.291,10.722,10.722,0,0,0,.525,1.11c.125.239.253.486.368.737a.683.683,0,0,1-.234.981l-.033.017c-.2.1-.58.18-.908-.371C312.687,482.465,312.606,482.313,312.528,482.167Z" transform="translate(-310.61 -457.457)" fill="#cbcbcb"/>
        <path id="Path_45573" data-name="Path 45573" d="M520.953,529.239l0-.011c-.119-.284-.248-.574-.372-.855a15.567,15.567,0,0,1-1.14-3.194,4.7,4.7,0,0,1,5.018-5.643,4.62,4.62,0,0,1,2.98,1.394,1.011,1.011,0,0,1,.352.666.638.638,0,0,1-.218.454c-.461.446-.916,0-1.065-.147a5.025,5.025,0,0,0-.489-.428,3.387,3.387,0,0,0-5.249,3.564,22.088,22.088,0,0,0,1.434,3.638c.03.063.069.13.109.2a1.022,1.022,0,0,1,.209.763.636.636,0,0,1-.335.366l-.041.021c-.591.3-.832-.152-1.025-.511-.049-.092-.1-.187-.156-.269Z" transform="translate(-507.169 -507.356)" fill="#cbcbcb"/>
        <path id="Path_45574" data-name="Path 45574" d="M661.009,585.059c-.138-.361-.347-.906.245-1.146.628-.253.895.395.995.638a13.472,13.472,0,0,0,6.222,6.841,14.693,14.693,0,0,0,2.856,1.105.648.648,0,0,1,.516.829.631.631,0,0,1-.3.425.782.782,0,0,1-.549.049c-.151-.033-.3-.076-.419-.113a14.93,14.93,0,0,1-8.873-7.123A10.011,10.011,0,0,1,661.009,585.059Z" transform="translate(-640.435 -567.94)" fill="#cbcbcb"/>
        <path id="Path_45575" data-name="Path 45575" d="M752.982,370.167a1.112,1.112,0,0,1-.438-.708l-.013-.039c0-.015-.01-.029-.015-.044s-.018-.049-.025-.075a15.417,15.417,0,0,0-5.812-8.254l-.035-.025a2.177,2.177,0,0,1-.354-.3.573.573,0,0,1-.057-.762.6.6,0,0,1,.789-.218,3.148,3.148,0,0,1,.482.3,16.394,16.394,0,0,1,4.9,5.527h0A16.187,16.187,0,0,1,753.836,369l0,.015c.1.347.241.856-.208,1.1a.909.909,0,0,1-.147.063A.639.639,0,0,1,752.982,370.167Z" transform="translate(-720.72 -356.831)" fill="#cbcbcb"/>
        <path id="Path_45576" data-name="Path 45576" d="M428.629,421.609a10.361,10.361,0,0,1,4.453-4.578c.083-.045.164-.092.246-.138.18-.1.366-.209.559-.3a10.424,10.424,0,0,1,3.482-.91.8.8,0,0,1,.6.152.647.647,0,0,1,.212.467c.016.23-.052.625-.685.689l-.017,0c-.112.011-.227.023-.338.04a9.46,9.46,0,0,0-7.459,5.432c-.019.038-.037.077-.055.116a2.906,2.906,0,0,1-.2.381.7.7,0,0,1-.244.231.624.624,0,0,1-.537.021.589.589,0,0,1-.365-.74A4.4,4.4,0,0,1,428.629,421.609Z" transform="translate(-421.397 -409.571)" fill="#cbcbcb"/>
        <path id="Path_45577" data-name="Path 45577" d="M575.31,718.236l0,0a.661.661,0,0,1,.114-.965.619.619,0,0,1,.916.133c.143.169.278.347.409.52.087.115.173.229.263.342a22.081,22.081,0,0,0,6.941,5.774c.292.156.836.445.551,1.039a.706.706,0,0,1-.284.329.52.52,0,0,1-.078.034,1.046,1.046,0,0,1-.772-.178l-.062-.031a19.447,19.447,0,0,1-2.291-1.388A22.62,22.62,0,0,1,575.31,718.236Z" transform="translate(-559.727 -693.434)" fill="#cbcbcb"/>
        <path id="Path_45578" data-name="Path 45578" d="M415.633,718.42a.6.6,0,0,1,.354-.323.652.652,0,0,1,.514-.013.984.984,0,0,1,.485.57,12.233,12.233,0,0,0,.68,1.4,31.511,31.511,0,0,0,4.352,5.988c.181.191.6.638.153,1.115a.8.8,0,0,1-.2.155.549.549,0,0,1-.27.07.936.936,0,0,1-.648-.375,29.281,29.281,0,0,1-5.3-7.819A1.021,1.021,0,0,1,415.633,718.42Z" transform="translate(-409.474 -694.298)" fill="#cbcbcb"/>
        <path id="Path_45579" data-name="Path 45579" d="M781.67,503.858a6.857,6.857,0,0,1-4.324-3.382l-.005-.009-.278-.717c-.262-.675-.56-1.439-.845-2.191a.6.6,0,0,1,.252-.783.667.667,0,0,1,.813.109,1.618,1.618,0,0,1,.427.724c.073.2.142.407.211.611.141.419.287.852.468,1.258a5.3,5.3,0,0,0,3.662,3.109c.264.068.592.153.692.521a.675.675,0,0,1-.328.752.933.933,0,0,1-.7.011Z" transform="translate(-749.018 -485.851)" fill="#cbcbcb"/>
        <path id="Path_45580" data-name="Path 45580" d="M709.114,710.491l-.014-.016a.64.64,0,0,1,.015-.908.724.724,0,0,1,1.026.057,15.605,15.605,0,0,0,5.086,2.782.978.978,0,0,1,.616.422.637.637,0,0,1,.005.509.648.648,0,0,1-.292.372,1,1,0,0,1-.777-.024,18.063,18.063,0,0,1-3.435-1.564A12.67,12.67,0,0,1,709.114,710.491Z" transform="translate(-685.695 -686.135)" fill="#cbcbcb"/>
        <path id="Path_45581" data-name="Path 45581" d="M776.061,630.476a.645.645,0,0,1-.109-.972.611.611,0,0,1,.928-.044,10.728,10.728,0,0,0,4.357,2.057.7.7,0,0,1,.319.175.615.615,0,0,1,.188.525.713.713,0,0,1-.363.535l-.025.014-.028,0c-.02,0-.044,0-.071.009a.972.972,0,0,1-.316.007A10.464,10.464,0,0,1,776.061,630.476Z" transform="translate(-748.656 -610.707)" fill="#cbcbcb"/>
        <path id="Path_45582" data-name="Path 45582" d="M560.824,809.615l-.152-.165-.017-.023a.686.686,0,0,1,.093-.924.618.618,0,0,1,.819-.033,2.336,2.336,0,0,1,.364.323l.015.016a24.131,24.131,0,0,0,3.19,2.754,1.063,1.063,0,0,1,.513.621.639.639,0,0,1-.151.484.758.758,0,0,1-.238.215c-.348.19-.718-.08-.936-.239a29.68,29.68,0,0,1-3.072-2.581C561.1,809.913,560.953,809.755,560.824,809.615Z" transform="translate(-545.948 -779.328)" fill="#cbcbcb"/>
      </g>
    </g>
    <g id="_Container_l_Color" data-name=" Container l Color" transform="translate(0 0)">
      <path id="Path_45587" data-name="Path 45587" d="M1336.647,672.559h-3.887a5.76,5.76,0,0,1-5.76-5.76v-3.489" transform="translate(-1327 -632.757)" fill="none" stroke="#00aa5d" stroke-linecap="round" stroke-miterlimit="10" stroke-width="1"/>
      <path id="Path_45588" data-name="Path 45588" d="M9.647,9.249H5.76A5.76,5.76,0,0,1,0,3.489V0" transform="translate(9.448) rotate(90)" fill="none" stroke="#00aa5d" stroke-linecap="round" stroke-miterlimit="10" stroke-width="1"/>
      <path id="Path_45589" data-name="Path 45589" d="M9.647,9.249H5.76A5.76,5.76,0,0,1,0,3.489V0" transform="translate(39.8 9.448) rotate(180)" fill="none" stroke="#00aa5d" stroke-linecap="round" stroke-miterlimit="10" stroke-width="1"/>
      <path id="Path_45590" data-name="Path 45590" d="M9.647,9.249H5.76A5.76,5.76,0,0,1,0,3.489V0" transform="translate(30.352 40) rotate(-90)" fill="none" stroke="#00aa5d" stroke-linecap="round" stroke-miterlimit="10" stroke-width="1"/>
    </g>
  </g>
</svg>
