<svg xmlns="http://www.w3.org/2000/svg" width="24" height="24" viewBox="0 0 24 24">
  <path id="Path_45639" data-name="Path 45639" d="M256.448,472a12,12,0,1,0,12,12A12.006,12.006,0,0,0,256.448,472Zm.755,20.6v-2.8a.8.8,0,0,0-1.6,0v2.8a.8.8,0,0,0,1.6,0Zm5.854-3.069-1.98-1.98a.8.8,0,0,0-1.131,1.131l1.98,1.98a.8.8,0,0,0,1.131-1.131Zm-12.163,1.1,1.98-1.98a.8.8,0,0,0-1.131-1.131l-1.98,1.98a.8.8,0,0,0,1.131,1.131Zm5.5-11.031a4.4,4.4,0,1,0,4.4,4.4A4.4,4.4,0,0,0,256.4,479.6Zm8.628,3.622h-2.8a.8.8,0,1,0,0,1.6h2.8a.8.8,0,0,0,0-1.6Zm-17.2,1.556h2.8a.8.8,0,0,0,0-1.6h-2.8a.8.8,0,1,0,0,1.6Zm14.131-7.409-1.98,1.98a.8.8,0,1,0,1.131,1.131l1.98-1.98a.8.8,0,0,0-1.131-1.131Zm-12.163,1.1,1.98,1.98a.8.8,0,0,0,1.132-1.131l-1.98-1.98a.8.8,0,0,0-1.132,1.131Zm5.854-3.069v2.8a.8.8,0,0,0,1.6,0v-2.8a.8.8,0,0,0-1.6,0Z" transform="translate(-244.448 -472)" fill="#838fa0" fill-rule="evenodd"/>
</svg>
