<svg width="1366" height="1221" viewBox="0 0 1366 1221" fill="none" xmlns="http://www.w3.org/2000/svg">
<g opacity="0.7">
<path opacity="0.5" d="M-78.6718 968.977C-196.049 867.973 -57.4371 494.616 73.2528 342.741C203.943 190.865 448.45 237.895 565.827 338.899C683.204 439.903 589.462 783.981 458.773 935.857C328.083 1087.73 38.7056 1069.98 -78.6718 968.977Z" fill="url(#paint0_linear)"/>
</g>
<g opacity="0.4">
<path opacity="0.5" d="M932.256 321.436C831.504 234.738 914.512 50.2741 1026.94 -80.3828C1139.37 -211.04 1320.44 -239.582 1412.94 -159.978C1513.7 -73.2811 1504.23 102.919 1391.8 233.576C1279.37 364.233 1033.01 408.133 932.256 321.436Z" fill="url(#paint1_linear)"/>
<ellipse opacity="0.5" cx="1711.67" cy="51.4669" rx="311.133" ry="240.67" transform="rotate(130.712 1711.67 51.4669)" fill="url(#paint2_linear)"/>
<path opacity="0.5" d="M1138.88 453.627C1037.77 366.623 1157.17 45.0151 1269.74 -85.8099C1382.32 -216.635 1592.94 -176.123 1694.04 -89.1188C1795.15 -2.11461 1714.4 294.272 1601.83 425.097C1489.25 555.922 1239.98 540.631 1138.88 453.627Z" fill="url(#paint3_linear)"/>
</g>
<g filter="url(#filter0_b)">
<path d="M-61 -60H1912V919H-61V-60Z" fill="white" fill-opacity="0.5"/>
</g>
<defs>
<filter id="filter0_b" x="-101" y="-100" width="2053" height="1059" filterUnits="userSpaceOnUse" color-interpolation-filters="sRGB">
<feFlood flood-opacity="0" result="BackgroundImageFix"/>
<feGaussianBlur in="BackgroundImage" stdDeviation="20"/>
<feComposite in2="SourceAlpha" operator="in" result="effect1_backgroundBlur"/>
<feBlend mode="normal" in="SourceGraphic" in2="effect1_backgroundBlur" result="shape"/>
</filter>
<linearGradient id="paint0_linear" x1="112.723" y1="1100.35" x2="653.547" y2="390.02" gradientUnits="userSpaceOnUse">
<stop stop-color="#535EC0"/>
<stop offset="0.390625" stop-color="#98A4EE"/>
<stop offset="0.71875" stop-color="#E3E6F2"/>
<stop offset="1" stop-color="#E7EEFF"/>
</linearGradient>
<linearGradient id="paint1_linear" x1="1082.01" y1="425.131" x2="1488.41" y2="-113.017" gradientUnits="userSpaceOnUse">
<stop stop-color="#535EC0"/>
<stop offset="0.390625" stop-color="#98A4EE"/>
<stop offset="0.71875" stop-color="#E3E6F2"/>
<stop offset="1" stop-color="#E7EEFF"/>
</linearGradient>
<linearGradient id="paint2_linear" x1="2005.3" y1="-79.3323" x2="1387.64" y2="-43.1624" gradientUnits="userSpaceOnUse">
<stop stop-color="#535EC0"/>
<stop offset="0.390625" stop-color="#98A4EE"/>
<stop offset="0.71875" stop-color="#E3E6F2"/>
<stop offset="1" stop-color="#E7EEFF"/>
</linearGradient>
<linearGradient id="paint3_linear" x1="1303.74" y1="566.794" x2="1769.61" y2="-45.0841" gradientUnits="userSpaceOnUse">
<stop stop-color="#535EC0"/>
<stop offset="0.390625" stop-color="#98A4EE"/>
<stop offset="0.71875" stop-color="#E3E6F2"/>
<stop offset="1" stop-color="#E7EEFF"/>
</linearGradient>
</defs>
</svg>
