<?xml version="1.0"?>
<svg xmlns="http://www.w3.org/2000/svg" xmlns:xlink="http://www.w3.org/1999/xlink" xmlns:svgjs="http://svgjs.com/svgjs" version="1.1" width="512" height="512" x="0" y="0" viewBox="0 0 48 48" style="enable-background:new 0 0 512 512" xml:space="preserve" class=""><g><g xmlns="http://www.w3.org/2000/svg" id="Line"><path d="M17.5,33a15.36,15.36,0,0,0,7.27-1.82L27.59,34l-.3.29a1,1,0,0,0,0,1.42l8.5,8.5a6,6,0,0,0,8.42-8.42l-8.5-8.5a1,1,0,0,0-1.42,0l-.29.3-2.82-2.82A15.49,15.49,0,1,0,17.5,33Zm25.29,4.21a4,4,0,0,1,0,5.58,4,4,0,0,1-5.58,0L29.41,35l.3-.29,5-5,.29-.3ZM32.59,29,29,32.59l-2.49-2.5a15.59,15.59,0,0,0,3.58-3.58ZM17.5,4A13.5,13.5,0,1,1,4,17.5,13.52,13.52,0,0,1,17.5,4Z" fill="#f7931a" data-original="#000000" style=""/><path d="M17.5,29A11.5,11.5,0,1,0,6,17.5,11.51,11.51,0,0,0,17.5,29Zm0-21A9.5,9.5,0,1,1,8,17.5,9.51,9.51,0,0,1,17.5,8Z" fill="#f7931a" data-original="#000000" style=""/></g></g></svg>
