<?xml version="1.0"?>
<svg xmlns="http://www.w3.org/2000/svg" xmlns:xlink="http://www.w3.org/1999/xlink" xmlns:svgjs="http://svgjs.com/svgjs" version="1.1" width="512" height="512" x="0" y="0" viewBox="0 0 68 68" style="enable-background:new 0 0 512 512" xml:space="preserve" class=""><g><g xmlns="http://www.w3.org/2000/svg"><g><g><path d="m66.9 65.6-14.1-37.6c-.1-.4-.5-.6-.9-.6s-.9.2-1 .6l-5.9 15.5-12.3-23.8v-4.5h12.9c.3 0 .5-.1.7-.3l5.9-6.1c.4-.4.4-1 0-1.4l-5.9-6.1c-.1-.2-.3-.3-.6-.3h-14c-.6 0-1 .4-1 1v17.7l-12.1 23.6-3.1-7.2c-.2-.4-.5-.6-.9-.6s-.8.2-.9.6l-12.6 29.5c-.1.3-.1.7.1.9s.5.5.8.5h64c.3 0 .6-.2.8-.4.2-.3.3-.6.1-1zm-16.7-57.5-4.9 5.1h-12.6v-10.2h12.5zm-35.6 31 11.1 25.9h-22.2zm13.2 25.9-8.2-19.3 12.1-23.6 22.1 42.9c-9.1 0-16.4 0-26 0zm28.3 0-9.8-19.1 5.6-14.8 12.7 33.9z" fill="#f7931a" data-original="#000000" style="" class=""/></g></g><g><g><path d="m38 11.1c.2.2.4.3.7.4.3 0 .5-.1.7-.2l5.7-4.9c.4-.4.5-1 .1-1.4s-1-.5-1.4-.1l-4.9 4.1-1.5-1.8c-.4-.4-1-.5-1.4-.1s-.5 1-.1 1.4z" fill="#f7931a" data-original="#000000" style="" class=""/></g></g><g><g><path d="m47.3 61.1c.3.5.9.7 1.4.4s.7-.9.4-1.4l-11.6-21c-.3-.5-.9-.7-1.4-.4s-.7.9-.4 1.4z" fill="#f7931a" data-original="#000000" style="" class=""/></g></g></g></g></svg>
