<svg width="21" height="19" viewBox="0 0 21 19" fill="none" xmlns="http://www.w3.org/2000/svg">
<path d="M20.9857 0.776332C21.0881 0.280265 20.6209 -0.138013 20.1652 0.0430114L0.395798 7.8988C0.157869 7.99337 0.000493341 8.23075 1.15777e-06 8.49584C-0.000491025 8.76098 0.155982 8.999 0.393584 9.09451L5.94717 11.3272V18.3596C5.94717 18.6562 6.14286 18.914 6.42012 18.9826C6.69554 19.0508 6.98273 18.9144 7.11184 18.6477L9.40874 13.9032L15.014 18.2334C15.355 18.4968 15.8451 18.3293 15.9692 17.906C21.2027 0.0444209 20.9764 0.821204 20.9857 0.776332ZM16.1057 3.0271L6.4752 10.1664L2.33151 8.50058L16.1057 3.0271ZM7.17763 11.2181L15.5721 4.99511C8.34878 12.9273 8.72604 12.5098 8.69454 12.554C8.64774 12.6195 8.77596 12.3641 7.17763 15.6656V11.2181ZM15.0467 16.6636L10.1128 12.852L19.034 3.05528L15.0467 16.6636Z" fill="white"/>
</svg>
