<?xml version="1.0"?>
<svg xmlns="http://www.w3.org/2000/svg" xmlns:xlink="http://www.w3.org/1999/xlink" xmlns:svgjs="http://svgjs.com/svgjs" version="1.1" width="512" height="512" x="0" y="0" viewBox="0 0 64 64" style="enable-background:new 0 0 512 512" xml:space="preserve" class=""><g><g xmlns="http://www.w3.org/2000/svg"><path d="m18 35c-6.065 0-11 4.935-11 11s4.935 11 11 11 11-4.935 11-11-4.935-11-11-11zm0 20c-4.963 0-9-4.037-9-9s4.037-9 9-9 9 4.037 9 9-4.037 9-9 9z" fill="#f7931a" data-original="#000000" style="" class=""/><path d="m21 39h-6v4h-4v6h4v4h6v-4h4v-6h-4zm2 6v2h-4v4h-2v-4h-4v-2h4v-4h2v4z" fill="#f7931a" data-original="#000000" style="" class=""/><path d="m58.767 37.267c2.763-3.891 4.233-8.446 4.233-13.267 0-12.683-10.317-23-23-23s-23 10.317-23 23c0 1.689.191 3.364.554 5h-3.283l-.876 2.734c-.773.249-1.52.557-2.229.919l-2.549-1.312-5.274 5.274 1.312 2.549c-.362.71-.67 1.456-.919 2.229l-2.736.878v7.459l2.734.876c.249.774.557 1.521.919 2.229l-1.312 2.549 5.274 5.273 2.549-1.311c.708.362 1.455.67 2.229.919l.878 2.735h7.459l.876-2.734c.774-.249 1.521-.557 2.229-.919l2.549 1.311 5.274-5.273-1.312-2.549c.139-.271.262-.553.384-.835h14.27c1.887 2.515 4.838 4 7.999 4 3.784 0 7.192-2.129 8.896-5.556l.105-.212v-2.233h-9.382l2-4h7.382v-2.242l-.11-.215c-.955-1.858-2.406-3.316-4.123-4.276zm-4.767-1.267c-.186 0-.369.022-.554.032l-6.421-6.421c.241-.301.459-.621.661-.952l9.994 6.662c-.247.384-.514.758-.788 1.129-.926-.288-1.895-.45-2.892-.45zm-5.405 1.59-3.936-5.905c.331-.201.651-.419.952-.661l5.436 5.436c-.865.269-1.692.642-2.452 1.13zm-14.206-20.615-8.49-8.49c.869-.79 1.798-1.512 2.79-2.15l6.652 9.979c-.331.202-.651.42-.952.661zm-1.414 1.414c-.241.301-.459.621-.661.952l-9.979-6.652c.638-.992 1.359-1.921 2.15-2.79zm7.025-1.389c3.859 0 7 3.141 7 7s-3.141 7-7 7-7-3.141-7-7 3.141-7 7-7zm21 7c0 3.394-.804 6.642-2.321 9.584l-10.14-6.759c.295-.89.461-1.838.461-2.825 0-4.963-4.037-9-9-9-.987 0-1.935.166-2.824.461l-6.752-10.128c2.875-1.481 6.125-2.333 9.576-2.333 11.579 0 21 9.421 21 21zm-42 0c0-3.451.852-6.701 2.333-9.576l10.128 6.751c-.295.89-.461 1.838-.461 2.825 0 4.963 4.037 9 9 9 .987 0 1.935-.166 2.824-.461l4.206 6.31c-.367.358-.718.734-1.03 1.151h-14.27c-.122-.282-.245-.563-.384-.835l1.312-2.549-5.274-5.274-2.549 1.312c-.71-.362-1.456-.67-2.229-.919l-.877-2.735h-2.118c-.398-1.63-.611-3.307-.611-5zm11.498 25.541c-.28.99-.668 1.931-1.152 2.797l-.263.468 1.13 2.195-3.212 3.211-2.195-1.129-.468.263c-.866.484-1.807.872-2.797 1.152l-.517.146-.753 2.356h-4.541l-.754-2.356-.517-.146c-.99-.28-1.931-.668-2.797-1.152l-.468-.263-2.195 1.129-3.212-3.211 1.13-2.195-.263-.468c-.484-.866-.872-1.807-1.152-2.797l-.146-.517-2.356-.753v-4.541l2.356-.754.146-.517c.279-.988.667-1.93 1.153-2.797l.262-.469-1.13-2.194 3.212-3.212 2.194 1.13.469-.262c.867-.486 1.809-.874 2.797-1.153l.517-.146.753-2.356h4.541l.754 2.356.517.146c.988.279 1.93.667 2.797 1.153l.469.262 2.194-1.13 3.212 3.212-1.13 2.194.262.469c.486.867.874 1.809 1.153 2.797l.146.517 2.356.753v4.541l-2.356.754zm23.884-7.541-4 8h10.484c-1.427 2.479-4.014 4-6.866 4-2.674 0-5.16-1.329-6.651-3.557l-.297-.443h-12.896l.844-.271v-7.459l-.844-.27h12.896l.297-.443c1.491-2.228 3.977-3.557 6.651-3.557 2.761 0 5.399 1.555 6.857 4z" fill="#f7931a" data-original="#000000" style="" class=""/><path d="m40 29c2.757 0 5-2.243 5-5s-2.243-5-5-5-5 2.243-5 5 2.243 5 5 5zm0-8c1.654 0 3 1.346 3 3s-1.346 3-3 3-3-1.346-3-3 1.346-3 3-3z" fill="#f7931a" data-original="#000000" style="" class=""/><path d="m57 24h2c0-10.477-8.523-19-19-19v2c9.374 0 17 7.626 17 17z" fill="#f7931a" data-original="#000000" style="" class=""/></g></g></svg>
