<svg width="134" height="26" viewBox="0 0 134 26" fill="none" xmlns="http://www.w3.org/2000/svg">
<path d="M11.8231 2.13274C12.1702 1.32678 13.3129 1.32678 13.66 2.13274L15.9518 7.45446C16.0966 7.79064 16.4134 8.02086 16.7779 8.05466L22.5473 8.58976C23.4211 8.6708 23.7742 9.75761 23.115 10.3368L18.7619 14.1609C18.4869 14.4024 18.3659 14.7749 18.4464 15.132L19.7203 20.7844C19.9133 21.6405 18.9888 22.3122 18.2342 21.8641L13.2521 18.9059C12.9374 18.719 12.5457 18.719 12.231 18.9059L7.2489 21.8641C6.49437 22.3122 5.56988 21.6405 5.76281 20.7844L7.03676 15.132C7.11724 14.7749 6.9962 14.4024 6.72122 14.1609L2.36816 10.3368C1.7089 9.75761 2.06202 8.6708 2.93579 8.58976L8.70524 8.05466C9.0697 8.02086 9.38657 7.79064 9.53135 7.45446L11.8231 2.13274Z" fill="#F7931A"/>
<path d="M65.7875 2.13274C66.1346 1.32678 67.2773 1.32678 67.6244 2.13274L69.9162 7.45446C70.0609 7.79064 70.3778 8.02086 70.7423 8.05466L76.5117 8.58976C77.3855 8.6708 77.7386 9.75761 77.0793 10.3368L72.7263 14.1609C72.4513 14.4024 72.3303 14.7749 72.4107 15.132L73.6847 20.7844C73.8776 21.6405 72.9531 22.3122 72.1986 21.8641L67.2165 18.9059C66.9018 18.719 66.5101 18.719 66.1954 18.9059L61.2133 21.8641C60.4587 22.3122 59.5342 21.6405 59.7272 20.7844L61.0011 15.132C61.0816 14.7749 60.9606 14.4024 60.6856 14.1609L56.3325 10.3368C55.6733 9.75761 56.0264 8.6708 56.9001 8.58976L62.6696 8.05466C63.0341 8.02086 63.3509 7.79064 63.4957 7.45446L65.7875 2.13274Z" fill="#F7931A"/>
<path d="M38.8055 2.13274C39.1526 1.32678 40.2954 1.32678 40.6424 2.13274L42.9342 7.45446C43.079 7.79064 43.3959 8.02086 43.7603 8.05466L49.5298 8.58976C50.4035 8.6708 50.7567 9.75761 50.0974 10.3368L45.7443 14.1609C45.4694 14.4024 45.3483 14.7749 45.4288 15.132L46.7028 20.7844C46.8957 21.6405 45.9712 22.3122 45.2167 21.8641L40.2346 18.9059C39.9198 18.719 39.5282 18.719 39.2134 18.9059L34.2313 21.8641C33.4768 22.3122 32.5523 21.6405 32.7452 20.7844L34.0192 15.132C34.0997 14.7749 33.9786 14.4024 33.7036 14.1609L29.3506 10.3368C28.6913 9.75761 29.0444 8.6708 29.9182 8.58976L35.6877 8.05466C36.0521 8.02086 36.369 7.79064 36.5138 7.45446L38.8055 2.13274Z" fill="#F7931A"/>
<path d="M92.7699 2.13274C93.117 1.32678 94.2597 1.32678 94.6068 2.13274L96.8986 7.45446C97.0433 7.79064 97.3602 8.02086 97.7247 8.05466L103.494 8.58976C104.368 8.6708 104.721 9.75761 104.062 10.3368L99.7087 14.1609C99.4337 14.4024 99.3127 14.7749 99.3932 15.132L100.667 20.7844C100.86 21.6405 99.9355 22.3122 99.181 21.8641L94.1989 18.9059C93.8842 18.719 93.4925 18.719 93.1778 18.9059L88.1957 21.8641C87.4412 22.3122 86.5167 21.6405 86.7096 20.7844L87.9835 15.132C88.064 14.7749 87.943 14.4024 87.668 14.1609L83.3149 10.3368C82.6557 9.75761 83.0088 8.6708 83.8826 8.58976L89.652 8.05466C90.0165 8.02086 90.3334 7.79064 90.4781 7.45446L92.7699 2.13274Z" fill="#F7931A"/>
<path d="M119.751 2.13274C120.098 1.32678 121.241 1.32678 121.588 2.13274L123.88 7.45446C124.024 7.79064 124.341 8.02086 124.706 8.05466L130.475 8.58976C131.349 8.6708 131.702 9.75761 131.043 10.3368L126.69 14.1609C126.415 14.4024 126.294 14.7749 126.374 15.132L127.648 20.7844C127.841 21.6405 126.917 22.3122 126.162 21.8641L121.18 18.9059C120.865 18.719 120.473 18.719 120.159 18.9059L115.177 21.8641C114.422 22.3122 113.498 21.6405 113.691 20.7844L114.964 15.132C115.045 14.7749 114.924 14.4024 114.649 14.1609L110.296 10.3368C109.637 9.75761 109.99 8.6708 110.864 8.58976L116.633 8.05466C116.997 8.02086 117.314 7.79064 117.459 7.45446L119.751 2.13274Z" fill="#F7931A"/>
</svg>
