<svg width="896" height="677" viewBox="0 0 896 677" fill="none" xmlns="http://www.w3.org/2000/svg">
<path d="M-21 556C-21 556 34.855 464.504 94 453.5C144.208 444.158 170.169 499.675 220 488.5C278.348 475.415 266.663 385.408 326 378C381.687 371.048 395.44 450.579 451.5 448C514.345 445.108 510 365.392 577 347C644 328.608 740.5 373.256 774.5 378C808.5 382.744 836.5 351.5 836.5 351.5" stroke="#F7931A"/>
<path opacity="0.3" d="M-71 570.793C-71 570.793 -15.145 479.297 44 468.293C94.2075 458.951 120.169 514.468 170 503.293C228.348 490.207 216.663 400.201 276 392.793C331.687 385.841 345.44 465.372 401.5 462.793C464.345 459.901 460 380.185 527 361.793C594 343.401 661 384.793 724.5 392.793C762.618 397.595 819.5 348.5 837 328" stroke="#242959" stroke-linecap="round" stroke-dasharray="5 5"/>
<path opacity="0.4" d="M-21.5001 473C-21.5001 473 35 396.369 112 401.5C162.956 404.896 237.955 501.268 289.002 502.794C348.773 504.58 401.762 339.793 497 339.793C545 339.793 566.047 399.354 615 426.793C771.998 514.793 825.5 205 895 205" stroke="#242959"/>
</svg>
