<svg width="270" height="97" viewBox="0 0 270 97" fill="none" xmlns="http://www.w3.org/2000/svg">
<path d="M260.001 96.4529H10.0003C4.76184 96.4529 0.5 92.1912 0.5 86.9524V9.50073C0.5 4.26245 4.76184 0.000732422 10.0003 0.000732422H112.501C112.501 0.0402832 112.501 0.079834 112.501 0.119385C112.501 3.15698 113.096 6.10327 114.269 8.8772C115.402 11.5559 117.024 13.9622 119.091 16.0291C121.157 18.095 123.563 19.717 126.242 20.8503C129.016 22.0237 131.962 22.6189 135 22.6189C138.038 22.6189 140.985 22.0237 143.759 20.8503C146.438 19.717 148.844 18.095 150.91 16.0291C152.977 13.9622 154.599 11.5559 155.732 8.8772C156.905 6.10278 157.5 3.15649 157.5 0.119385C157.5 0.0803223 157.5 0.0407715 157.5 0.000732422H260.001C265.239 0.000732422 269.501 4.26245 269.501 9.50073V86.9524C269.501 92.1912 265.239 96.4529 260.001 96.4529Z" fill="url(#paint0_linear_0_1635)"/>
<defs>
<linearGradient id="paint0_linear_0_1635" x1="2.65201" y1="1.73687" x2="59.8643" y2="164.994" gradientUnits="userSpaceOnUse">
<stop stop-color="#F1F3F6"/>
<stop offset="1" stop-color="white" stop-opacity="0.306"/>
</linearGradient>
</defs>
</svg>
