<svg width="60" height="52" viewBox="0 0 60 52" fill="none" xmlns="http://www.w3.org/2000/svg">
<g clip-path="url(#clip0_78_43)">
<path d="M10.0634 0C7.39517 0.00421999 4.83752 1.07364 2.9511 2.9738C1.06468 4.87397 0.00342723 7.44983 0 10.1367V19.6919H5.69619V10.1367C5.69733 8.97082 6.15785 7.85306 6.97665 7.0288C7.79545 6.20455 8.90559 5.74117 10.0634 5.7404H17.7149V0H10.0634Z" fill="url(#paint0_linear_78_43)"/>
<path d="M11.1073 46.2654H10.0634C8.90559 46.2646 7.79545 45.8012 6.97665 44.977C6.15785 44.1527 5.69733 43.035 5.69619 41.8691V32.5487H0V41.8691C0.00495006 44.5549 1.06687 47.1293 2.95313 49.0282C4.83938 50.9272 7.39617 51.9958 10.0634 52H16.802V31.6788H18.6264L16.802 29.108V28.9064H16.658L16.2894 28.3873L13.9525 25.0945L11.617 28.3873L11.2484 28.9064H11.1044V29.108L9.28006 31.6788H11.1044L11.1073 46.2654Z" fill="url(#paint1_linear_78_43)"/>
<path d="M24.0157 17.4663L21.6802 20.7577L19.3433 24.0506H21.1676V46.2655V52.0001H26.8638V46.2655V24.0506H28.6881L26.3512 20.7577L24.0157 17.4663Z" fill="url(#paint2_linear_78_43)"/>
<path d="M42.4463 52C41.3333 52 40.2102 51.9725 39.0223 51.9435C37.8344 51.9145 36.6206 51.884 35.4226 51.884C34.8308 51.884 34.2808 51.8913 33.761 51.9058V35.4516H40.3182V45.2751L41.4701 45.3113C42.2217 45.3345 42.9316 45.3563 43.6155 45.3563C44.9546 45.3563 46.5111 45.2823 47.8877 44.7285C49.6122 44.03 51.0736 42.801 52.0633 41.2166C53.2255 39.3492 53.669 37.1181 53.3103 34.9441C52.969 32.9997 52.131 31.4642 50.5947 29.9823C49.1461 28.5817 47.3491 27.7769 45.2556 27.5913C44.5356 27.529 43.0957 27.4971 40.8164 27.4971C39.0223 27.4971 37.0165 27.5174 35.4053 27.5319L33.6386 27.5478L33.6947 20.9317C35.6904 20.9491 36.8337 20.9766 37.6242 20.9969C38.0878 21.0085 38.4233 21.0158 38.717 21.0158C39.1773 21.0153 39.6371 20.9915 40.095 20.9447C42.7948 20.7011 45.6602 18.0346 45.653 13.5746C45.6443 8.82448 42.3599 6.85398 39.5507 6.61474H39.5133H28.5615H28.5111C28.2685 6.64393 28.0466 6.76712 27.8926 6.95821C27.7386 7.1493 27.6645 7.39327 27.6861 7.63841V13.4716H21.0972V0.00146484H37.9669C39.6659 0.00146484 41.2988 0.027562 42.622 0.343654C46.9244 1.36733 50.1627 4.4572 51.5061 8.82303C52.4939 12.0362 51.9885 18.7698 50.5903 21.0332L50.0633 21.8814L50.9618 22.3164C54.7329 24.1259 57.4024 26.9563 58.8941 30.7088C59.7726 32.9456 60.134 35.3544 59.951 37.7527C59.7854 39.9494 59.1467 42.0834 58.0792 44.0064C56.1051 47.5776 52.9892 50.0962 49.0713 51.2895C47.0021 51.9203 44.4463 52 42.4478 52H42.4463Z" fill="url(#paint3_linear_78_43)"/>
</g>
<defs>
<linearGradient id="paint0_linear_78_43" x1="8.85745" y1="0" x2="8.85745" y2="19.6919" gradientUnits="userSpaceOnUse">
<stop stop-color="#2B7AFF"/>
<stop offset="1" stop-color="#02245E"/>
</linearGradient>
<linearGradient id="paint1_linear_78_43" x1="9.31318" y1="25.0945" x2="9.31318" y2="52" gradientUnits="userSpaceOnUse">
<stop stop-color="#2B7AFF"/>
<stop offset="1" stop-color="#02245E"/>
</linearGradient>
<linearGradient id="paint2_linear_78_43" x1="24.0157" y1="17.4663" x2="24.0157" y2="52.0001" gradientUnits="userSpaceOnUse">
<stop stop-color="#2B7AFF"/>
<stop offset="1" stop-color="#02245E"/>
</linearGradient>
<linearGradient id="paint3_linear_78_43" x1="40.5472" y1="0.00146484" x2="40.5472" y2="52" gradientUnits="userSpaceOnUse">
<stop stop-color="#2B7AFF"/>
<stop offset="1" stop-color="#02245E"/>
</linearGradient>
<clipPath id="clip0_78_43">
<rect width="60" height="52" fill="white"/>
</clipPath>
</defs>
</svg>
