<svg id="e" xmlns="http://www.w3.org/2000/svg" width="24" height="24" viewBox="0 0 24 24">
  <path id="Path_45610" data-name="Path 45610" d="M13.132,19.222a6.091,6.091,0,0,1,9.744-4.873c.058-.849.094-1.8.1-2.863a36.628,36.628,0,0,0-.467-6.074A6.421,6.421,0,0,0,17.56.467,36.569,36.569,0,0,0,11.486,0,36.635,36.635,0,0,0,5.412.467,6.422,6.422,0,0,0,.467,5.412,36.68,36.68,0,0,0,0,11.486,36.687,36.687,0,0,0,.467,17.56a6.421,6.421,0,0,0,4.945,4.945,36.682,36.682,0,0,0,6.074.467c1.064,0,2.014-.038,2.863-.1a6.045,6.045,0,0,1-1.217-3.654ZM5.811,5.551H17.161a1.329,1.329,0,1,1,0,2.659H5.811a1.329,1.329,0,1,1,0-2.659Zm0,8.21a1.329,1.329,0,1,1,0-2.659h6.663a1.329,1.329,0,1,1,0,2.659Z" fill="#00aa5d"/>
  <path id="Path_45611" data-name="Path 45611" d="M312.938,308.16a4.777,4.777,0,1,0,4.777,4.777,4.777,4.777,0,0,0-4.777-4.777Zm.891,7.148a.891.891,0,0,1-1.781,0v-2.35a.891.891,0,0,1,1.781,0Zm-.037-4.256a.5.5,0,0,1-.387.387,2.9,2.9,0,0,1-.476.037,2.85,2.85,0,0,1-.476-.037.5.5,0,0,1-.387-.387,2.9,2.9,0,0,1-.037-.476,2.851,2.851,0,0,1,.037-.476.5.5,0,0,1,.387-.387,2.9,2.9,0,0,1,.476-.037,2.85,2.85,0,0,1,.476.037.5.5,0,0,1,.387.387,2.9,2.9,0,0,1,.037.476A2.851,2.851,0,0,1,313.792,311.052Z" transform="translate(-293.715 -293.715)" fill="#00aa5d"/>
</svg>
