<svg xmlns="http://www.w3.org/2000/svg" xmlns:xlink="http://www.w3.org/1999/xlink" width="61.642" height="55" viewBox="0 0 61.642 55">
  <defs>
    <style>
      .cls-1 {
        fill: #fff;
      }

      .cls-2 {
        fill: url(#linear-gradient);
      }

      .cls-3 {
        fill: #00aa5d;
      }

      .cls-4 {
        fill: #04a55c;
      }
    </style>
    <linearGradient id="linear-gradient" x1="0.115" y1="0.976" x2="0.899" y2="0.032" gradientUnits="objectBoundingBox">
      <stop offset="0" stop-color="#0bba6b"/>
      <stop offset="1" stop-color="#e3fde9"/>
    </linearGradient>
  </defs>
  <g id="Icon2" transform="translate(-2411.17 395.174)">
    <g id="Group_77598" data-name="Group 77598">
      <rect id="Rectangle_25681" data-name="Rectangle 25681" class="cls-1" width="61" height="55" rx="10" transform="translate(2411.17 -395.174)"/>
      <rect id="Rectangle_25680" data-name="Rectangle 25680" class="cls-2" width="60.641" height="55" rx="9.849" transform="translate(2412.17 -395.174)"/>
      <path id="Path_45601" data-name="Path 45601" class="cls-3" d="M2470.492-391.761a8.71,8.71,0,0,1,1.562,4.979v37a9.181,9.181,0,0,1-9.352,9h-41.937a9.615,9.615,0,0,1-3.876-.81,10.149,10.149,0,0,0,5.2,1.418h40.8a9.738,9.738,0,0,0,9.919-9.545v-35.91A9.292,9.292,0,0,0,2470.492-391.761Z"/>
    </g>
    <g id="Group_77601" data-name="Group 77601">
      <g id="Group_77599" data-name="Group 77599">
        <path id="Path_45602" data-name="Path 45602" class="cls-4" d="M2445.2-361.173a3.247,3.247,0,0,0-.835-2.334,8.241,8.241,0,0,0-2.964-1.7,16.511,16.511,0,0,1-5.947-3.142,6.53,6.53,0,0,1-1.935-5.041,6.594,6.594,0,0,1,1.935-4.908,8.436,8.436,0,0,1,5.255-2.246v-3.8h2.822v3.852a7.856,7.856,0,0,1,5.006,2.494c1.1,1.243,2.659,2.246,2.729,4.169.007.192-.968.968-.972,1.166l-5.094.088a4.479,4.479,0,0,0-.879-2.973,3.046,3.046,0,0,0-2.459-1.038,3.019,3.019,0,0,0-2.414.87,3.479,3.479,0,0,0-.745,2.343,3.007,3.007,0,0,0,.789,2.183,9.637,9.637,0,0,0,3.027,1.758,15.427,15.427,0,0,1,5.894,3.133,6.681,6.681,0,0,1,1.953,5.085,6.545,6.545,0,0,1-1.927,4.944,8.572,8.572,0,0,1-5.263,2.193l.972,2.331-.972,1.166h-2.823v-3.5a9.387,9.387,0,0,1-5.6-2.264,7.131,7.131,0,0,1-2.121-5.76l.053-.107.918-1.059,4.123,1.059a4.106,4.106,0,0,0,1.11,3.24,4.228,4.228,0,0,0,2.884.968,3.592,3.592,0,0,0,2.61-.853A3.1,3.1,0,0,0,2445.2-361.173Z"/>
      </g>
      <g id="Group_77600" data-name="Group 77600">
        <path id="Path_45603" data-name="Path 45603" class="cls-1" d="M2446.174-362.339a3.252,3.252,0,0,0-.834-2.334,8.246,8.246,0,0,0-2.965-1.7,16.536,16.536,0,0,1-5.946-3.142,6.534,6.534,0,0,1-1.935-5.042,6.594,6.594,0,0,1,1.935-4.908,8.431,8.431,0,0,1,5.254-2.246v-3.8h2.823v3.853a7.849,7.849,0,0,1,5,2.494,7.564,7.564,0,0,1,1.758,5.334l-5.095.089a4.481,4.481,0,0,0-.879-2.974,3.044,3.044,0,0,0-2.458-1.038,3.018,3.018,0,0,0-2.414.87,3.48,3.48,0,0,0-.746,2.343,3,3,0,0,0,.79,2.183,9.618,9.618,0,0,0,3.027,1.758,15.428,15.428,0,0,1,5.893,3.133,6.68,6.68,0,0,1,1.953,5.086,6.548,6.548,0,0,1-1.926,4.944,8.581,8.581,0,0,1-5.263,2.192v3.5h-2.823v-3.5a9.393,9.393,0,0,1-5.6-2.263,7.142,7.142,0,0,1-2.121-5.761l.053-.106h5.042a4.1,4.1,0,0,0,1.109,3.239,4.226,4.226,0,0,0,2.885.968,3.588,3.588,0,0,0,2.609-.852A3.105,3.105,0,0,0,2446.174-362.339Z"/>
      </g>
    </g>
  </g>
</svg>
