<svg xmlns="http://www.w3.org/2000/svg" width="24" height="24" viewBox="0 0 24 24">
  <g id="Layer_2" data-name="Layer 2" transform="translate(-21.333 -21.333)">
    <path id="Path_45607" data-name="Path 45607" d="M33.333,21.333a12,12,0,1,0,12,12A12,12,0,0,0,33.333,21.333Zm4.628,15.086a1.091,1.091,0,0,1-1.516,1.569l-.027-.027-3.085-3.086-3.085,3.086a1.091,1.091,0,0,1-1.543-1.543l3.085-3.086-3.085-3.086a1.091,1.091,0,1,1,1.516-1.569l.027.027,3.085,3.086L36.418,28.7a1.091,1.091,0,1,1,1.569,1.516l-.027.027-3.085,3.086Z" fill="#00aa5d"/>
  </g>
</svg>
