<svg xmlns="http://www.w3.org/2000/svg" width="24" height="24" viewBox="0 0 24 24">
  <path id="Path_45605" data-name="Path 45605" d="M256,488a12,12,0,1,0,12,12A12.013,12.013,0,0,0,256,488Zm-1.356,10.76,3.041.507A2.761,2.761,0,0,1,260,502a3,3,0,0,1-3,3v2h-2v-2a3,3,0,0,1-3-3h2a1,1,0,0,0,1,1h2a1,1,0,0,0,1-1,.768.768,0,0,0-.644-.76l-3.041-.507A2.761,2.761,0,0,1,252,498a3,3,0,0,1,3-3v-2h2v2a3,3,0,0,1,3,3h-2a1,1,0,0,0-1-1h-2a1,1,0,0,0-1,1A.768.768,0,0,0,254.644,498.76Z" transform="translate(-244 -488)" fill="#00aa5d"/>
</svg>
