<svg xmlns="http://www.w3.org/2000/svg" width="22.545" height="24" viewBox="0 0 22.545 24">
  <g id="diamond" transform="translate(-15.52)">
    <path id="Path_45608" data-name="Path 45608" d="M26.445,18.978a6.6,6.6,0,0,1,10.18-5.543c.007-.489.011-1.011.011-1.574a59.38,59.38,0,0,0-.293-6.572h.028a5.6,5.6,0,0,0-3.64-4.68c-.052-.02-.1-.038-.157-.056a5.6,5.6,0,0,0-1.2-.261l-.039,0A31.606,31.606,0,0,0,26.247,0a35.657,35.657,0,0,0-5.369.29l-.039,0a5.586,5.586,0,0,0-1.257.281V.555a5.6,5.6,0,0,0-3.768,4.724,59.413,59.413,0,0,0-.294,6.584,59.413,59.413,0,0,0,.294,6.584,5.606,5.606,0,0,0,5,5l.039,0a31.223,31.223,0,0,0,5.089.29c1.087,0,1.875-.014,2.493-.039a6.579,6.579,0,0,1-1.987-4.718ZM20.96,6.241H31.194a1.117,1.117,0,0,1,0,2.233H20.963a1.117,1.117,0,0,1,0-2.233Zm0,7.011a1.117,1.117,0,0,1,0-2.234H26.8a1.117,1.117,0,0,1,.046,2.234H20.96Z" transform="translate(0)" fill="#00aa5d"/>
    <path id="Path_45609" data-name="Path 45609" d="M287.242,297.74a5.022,5.022,0,1,0,5.022,5.022,5.022,5.022,0,0,0-5.022-5.022Zm1.99,5.757h-2.09a.6.6,0,0,1-.6-.6v-3.211a.6.6,0,0,1,1.2,0V302.3h1.493a.6.6,0,0,1,0,1.2Z" transform="translate(-254.198 -283.783)" fill="#00aa5d"/>
  </g>
</svg>
